<svg height="512pt" viewBox="0 -10 512.001 512" width="512pt" xmlns="http://www.w3.org/2000/svg"><path d="m477.878906 253.835938h-99.234375c.867188-1.902344 1.570313-3.90625 2.085938-6.007813l.167969-.683594c1.3125-5.363281-1.96875-10.777343-7.332032-12.09375-5.367187-1.304687-10.78125 1.96875-12.09375 7.335938l-.167968.679687c-1.851563 7.566406-9.507813 12.21875-17.078126 10.359375l-165.132812-40.449219c-3.664062-.898437-6.757812-3.167968-8.714844-6.394531-1.957031-3.222656-2.539062-7.019531-1.640625-10.683593l40.445313-165.132813c.898437-3.664063 3.167968-6.757813 6.394531-8.714844 3.226563-1.953125 7.019531-2.539062 10.6875-1.640625l165.128906 40.449219c7.566407 1.851563 12.210938 9.515625 10.359375 17.078125l-22.164062 90.488281c-1.3125 5.363281 1.96875 10.773438 7.332031 12.089844 5.359375 1.316406 10.777344-1.96875 12.09375-7.332031l22.164063-90.488282c4.476562-18.273437-6.75-36.785156-25.023438-41.261718l-165.132812-40.449219c-18.273438-4.476563-36.785157 6.75-41.261719 25.027344l-40.449219 165.128906c-2.167969 8.855469-.761719 18.023437 3.964844 25.8125.671875 1.109375 1.40625 2.164063 2.1875 3.179687h-121.34375c-18.8125 0-34.121094 15.304688-34.121094 34.121094v170.015625c0 18.816407 15.308594 34.121094 34.121094 34.121094h170.015625c18.816406 0 34.125-15.304687 34.125-34.121094v-170.015625c0-2.164062-.210938-4.285156-.601563-6.339844l50.335938 12.328126c-8.625 6.199218-14.257813 16.3125-14.257813 27.71875v170.015624c0 18.8125 15.308594 34.121094 34.125 34.121094h170.015625c18.8125 0 34.121094-15.308594 34.121094-34.121094v-170.015624c0-18.816407-15.308594-34.125-34.121094-34.125zm-259.617187 170.433593c0 7.785157-6.335938 14.121094-14.125 14.121094h-170.015625c-7.785156 0-14.121094-6.335937-14.121094-14.121094v-170.015625c0-7.785156 6.335938-14.121094 14.121094-14.121094h170.015625c7.789062 0 14.125 6.335938 14.125 14.121094zm273.738281 33.703125c0 7.789063-6.335938 14.125-14.121094 14.125h-170.015625c-7.789062 0-14.125-6.335937-14.125-14.125v-170.011718c0-7.789063 6.335938-14.125 14.125-14.125h170.015625c7.785156 0 14.121094 6.335937 14.121094 14.125zm0 0"/><path d="m189.605469 258.394531h-140.949219c-5.730469 0-10.394531 4.664063-10.394531 10.390625v21.191406c0 5.523438 4.480469 10 10 10 5.523437 0 10-4.476562 10-10v-11.582031h121.734375v121.734375h-121.730469v-34.167968c0-5.523438-4.480469-10-10-10-5.523437 0-10 4.476562-10 10v43.777343c0 5.726563 4.660156 10.390625 10.390625 10.390625h140.949219c5.730469 0 10.390625-4.660156 10.390625-10.390625v-140.953125c0-5.726562-4.660156-10.390625-10.390625-10.390625zm0 0"/><path d="m463.34375 292.101562h-140.949219c-5.730469 0-10.390625 4.660157-10.390625 10.390626v140.949218c0 5.730469 4.660156 10.394532 10.390625 10.394532h140.949219c5.730469 0 10.394531-4.664063 10.394531-10.394532v-140.949218c-.003906-5.730469-4.664062-10.390626-10.394531-10.390626zm-9.609375 141.734376h-121.730469v-121.734376h121.730469zm0 0"/><path d="m379.347656 79.84375c-1.4375-2.367188-3.707031-4.039062-6.410156-4.703125l-136.929688-33.539063c-5.542968-1.34375-11.167968 2.074219-12.539062 7.625l-33.527344 136.890626c-1.375 5.5625 2.035156 11.203124 7.613282 12.578124l136.90625 33.535157c.007812 0 .015624.003906.027343.003906.8125.199219 1.628907.292969 2.433594.292969 4.671875 0 8.933594-3.183594 10.101563-7.917969l33.53125-136.890625c.664062-2.699219.238281-5.496094-1.207032-7.875zm-49.460937 130.671875-118.238281-28.960937 28.960937-118.234376 118.234375 28.960938zm0 0"/><path d="m100.199219 376.550781 4.996093-12.417969h27.507813l4.917969 12.378907c1.558594 3.921875 5.320312 6.308593 9.296875 6.308593 1.230469 0 2.480469-.226562 3.6875-.707031 5.132812-2.039062 7.640625-7.855469 5.601562-12.984375l-27.820312-70.039062c-1.511719-3.800782-5.183594-6.296875-9.273438-6.308594-.007812 0-.015625 0-.019531 0-4.082031 0-7.757812 2.480469-9.277344 6.269531l-20.582031 51.167969c-.007813.023438-.015625.046875-.027344.070312l-7.5625 18.796876c-2.058593 5.125.421875 10.949218 5.546875 13.011718 5.128906 2.058594 10.949219-.425781 13.007813-5.546875zm24.558593-32.417969h-11.519531l5.796875-14.410156zm0 0"/><path d="m366.34375 418.773438h40.332031c7.453125 0 14.457031-2.902344 19.726563-8.171876 5.273437-5.269531 8.171875-12.277343 8.171875-19.726562 0-6.8125-2.453125-13.054688-6.519531-17.902344 4.066406-4.847656 6.519531-11.09375 6.519531-17.902344 0-15.382812-12.515625-27.898437-27.898438-27.898437h-40.332031c-5.523438 0-10 4.476563-10 10v71.601563c0 5.523437 4.476562 10 10 10zm45.917969-22.3125c-1.492188 1.492187-3.476563 2.3125-5.585938 2.3125h-30.332031v-15.800782h30.332031c4.355469 0 7.898438 3.542969 7.898438 7.902344 0 2.109375-.820313 4.09375-2.3125 5.585938zm-35.917969-49.292969h30.332031c4.355469 0 7.898438 3.546875 7.898438 7.902343 0 4.355469-3.542969 7.902344-7.898438 7.902344l-30.332031-.003906zm0 0"/><path d="m268.628906 179.769531 14.445313 3.539063c2.503906.613281 5.03125.914062 7.546875.914062 5.6875 0 11.285156-1.550781 16.273437-4.578125 7.195313-4.363281 12.257813-11.265625 14.257813-19.433593 1.3125-5.367188-1.96875-10.777344-7.335938-12.09375-5.371094-1.316407-10.777344 1.972656-12.089844 7.335937-.730468 2.980469-2.578124 5.5-5.203124 7.09375-2.625 1.589844-5.714844 2.066406-8.691407 1.335937l-14.445312-3.539062c-6.152344-1.507812-9.9375-7.742188-8.425781-13.898438l6.695312-27.351562c.730469-2.980469 2.578125-5.5 5.203125-7.089844 2.625-1.59375 5.707031-2.066406 8.691406-1.335937l14.445313 3.535156c6.152344 1.507813 9.9375 7.742187 8.429687 13.898437-1.316406 5.363282 1.96875 10.777344 7.332031 12.089844 5.367188 1.320313 10.777344-1.96875 12.09375-7.332031 4.128907-16.867187-6.230468-33.949219-23.097656-38.082031l-14.445312-3.539063c-8.164063-2-16.628906-.699219-23.824219 3.664063-7.191406 4.363281-12.253906 11.265625-14.253906 19.4375l-6.699219 27.347656c-4.128906 16.867188 6.230469 33.949219 23.097656 38.082031zm0 0"/><path d="m39.949219 333.679688c2.265625 3.464843 6.644531 5.132812 10.648437 4.167968 3.980469-.957031 7.046875-4.339844 7.578125-8.410156.535157-4.09375-1.566406-8.175781-5.203125-10.121094-3.832031-2.046875-8.710937-1.332031-11.785156 1.742188-3.324219 3.328125-3.84375 8.710937-1.238281 12.621094zm0 0"/><path d="m372.039062 210.378906c1.609376 3.863282 5.539063 6.355469 9.71875 6.15625 4.117188-.195312 7.765626-3.007812 9.023438-6.929687 1.269531-3.964844-.097656-8.457031-3.425781-10.988281-3.378907-2.570313-8.09375-2.71875-11.636719-.378907-3.941406 2.605469-5.460938 7.792969-3.679688 12.140625zm0 0"/></svg>