<svg height="512pt" viewBox="0 -26 512 512" width="512pt" xmlns="http://www.w3.org/2000/svg"><path d="m482 0c-16.542969 0-30 13.457031-30 30v90h-46v-110c0-5.523438-4.480469-10-10-10h-280c-5.523438 0-10 4.476562-10 10v110h-46v-90c0-16.542969-13.457031-30-30-30s-30 13.457031-30 30v10c0 5.523438 4.476562 10 10 10s10-4.476562 10-10v-10c0-5.515625 4.484375-10 10-10s10 4.484375 10 10v410h-20v-310c0-5.523438-4.476562-10-10-10s-10 4.476562-10 10v320c0 5.523438 4.476562 10 10 10h492c5.523438 0 10-4.476562 10-10v-420c0-16.542969-13.457031-30-30-30zm-96 120h-120v-100h29.996094v40c0 3.464844 1.796875 6.683594 4.742187 8.503906 2.949219 1.824219 6.628907 1.988282 9.730469.441406l15.527344-7.765624 15.527344 7.765624c1.410156.703126 2.941406 1.054688 4.472656 1.054688 1.828125 0 3.652344-.5 5.257812-1.496094 2.945313-1.820312 4.742188-5.039062 4.742188-8.503906v-40h30.003906zm-70.003906-100h20v23.820312l-5.527344-2.765624c-2.816406-1.40625-6.128906-1.40625-8.945312 0l-5.527344 2.765624zm-140 0h20v23.820312l-5.527344-2.765624c-2.816406-1.40625-6.128906-1.40625-8.945312 0l-5.527344 2.765624zm-49.996094 0h29.996094v40c0 3.464844 1.792968 6.683594 4.742187 8.503906 2.949219 1.824219 6.632813 1.988282 9.730469.441406l15.527344-7.765624 15.527344 7.765624c1.414062.703126 2.945312 1.054688 4.472656 1.054688 1.828125 0 3.652344-.5 5.257812-1.496094 2.949219-1.820312 4.742188-5.039062 4.742188-8.503906v-40h30.003906v100h-120zm326 120v140h-46v-110c0-5.523438-4.480469-10-10-10h-280c-5.523438 0-10 4.476562-10 10v110h-46v-140zm-326 140v-100h29.996094v40c0 3.464844 1.792968 6.683594 4.742187 8.503906 2.949219 1.824219 6.628907 1.988282 9.730469.4375l15.527344-7.761718 15.527344 7.761718c1.414062.707032 2.945312 1.058594 4.472656 1.058594 1.828125 0 3.652344-.5 5.257812-1.496094 2.949219-1.820312 4.742188-5.039062 4.742188-8.503906v-40h30.003906v100zm69.996094-100v23.820312l-5.527344-2.765624c-2.816406-1.40625-6.128906-1.40625-8.945312 0l-5.527344 2.765624v-23.820312zm70.003906 0h29.996094v40c0 3.464844 1.796875 6.683594 4.742187 8.507812 2.949219 1.820313 6.628907 1.984376 9.730469.4375l15.527344-7.765624 15.527344 7.765624c1.410156.703126 2.941406 1.054688 4.472656 1.054688 1.828125 0 3.652344-.5 5.257812-1.492188 2.945313-1.824218 4.742188-5.042968 4.742188-8.507812v-40h30.003906v100h-120zm69.996094 0v23.820312l-5.527344-2.765624c-2.8125-1.40625-6.128906-1.40625-8.941406 0l-5.53125 2.765624v-23.820312zm-160 160h20v23.820312l-5.527344-2.765624c-2.816406-1.40625-6.128906-1.40625-8.945312 0l-5.527344 2.765624zm-15.257813 48.507812c2.949219 1.820313 6.632813 1.988282 9.730469.4375l15.527344-7.765624 15.527344 7.765624c1.414062.707032 2.945312 1.054688 4.472656 1.054688 1.828125 0 3.652344-.5 5.257812-1.492188 2.949219-1.824218 4.742188-5.042968 4.742188-8.507812v-40h30.003906v100h-120v-100h29.996094v40c0 3.46875 1.796875 6.6875 4.742187 8.507812zm155.257813-48.507812h20v23.820312l-5.527344-2.765624c-2.816406-1.40625-6.128906-1.40625-8.945312 0l-5.527344 2.765624zm-15.257813 48.507812c2.949219 1.820313 6.628907 1.988282 9.730469.4375l15.527344-7.765624 15.527344 7.765624c1.410156.707032 2.941406 1.054688 4.472656 1.054688 1.828125 0 3.652344-.5 5.257812-1.492188 2.945313-1.824218 4.742188-5.042968 4.742188-8.507812v-40h30.003906v100h-120v-100h29.996094v40c0 3.46875 1.796875 6.6875 4.742187 8.507812zm191.261719 51.492188h-20v-20c0-5.523438-4.476562-10-10-10s-10 4.476562-10 10v20h-46v-110c0-5.523438-4.480469-10-10-10h-280c-5.523438 0-10 4.476562-10 10v110h-46v-140h392v30c0 5.523438 4.476562 10 10 10s10-4.476562 10-10v-300c0-5.515625 4.484375-10 10-10s10 4.484375 10 10zm0 0"/><path d="m10 95.003906c5.523438 0 10-4.476562 10-10v-.007812c0-5.523438-4.476562-9.996094-10-9.996094s-10 4.480469-10 10.003906c0 5.523438 4.476562 10 10 10zm0 0"/><path d="m462 365c-5.523438 0-10 4.480469-10 10.003906 0 5.523438 4.476562 10 10 10s10-4.476562 10-10v-.007812c0-5.523438-4.476562-9.996094-10-9.996094zm0 0"/></svg>