<svg id="Layer_3" enable-background="new 0 0 64 64" height="512" viewBox="0 0 64 64" width="512"
    xmlns="http://www.w3.org/2000/svg">
    <path d="m4 20h56v18h-56z" fill="#f1f1f1" />
    <path d="m48 32h4v6h-4z" fill="#dc6068" />
    <path d="m56 32h4v6h-4z" fill="#71b38e" />
    <path d="m40 30h4v8h-4z" fill="#71b38e" />
    <path d="m44 30h4v8h-4z" fill="#f8cf6a" />
    <path d="m52 30h4v8h-4z" fill="#f8cf6a" />
    <path d="m28 24h6v4h-6z" fill="#5b6673" />
    <path d="m22 32h12v6h-12z" fill="#444d56" />
    <path d="m22 32h9v6h-9z" fill="#5b6673" />
    <circle cx="12" cy="27" fill="#f8cf6a" r="3" />
    <path d="m16 38h-8v-4c0-2.209 1.791-4 4-4 2.209 0 4 1.791 4 4z" fill="#ba9b50" />
    <path d="m10.5 30.297c-1.465.594-2.5 2.025-2.5 3.703v4h5v-4c0-1.678-1.035-3.109-2.5-3.703z" fill="#f8cf6a" />
    <path d="m4 2h56v18h-56z" fill="#cb9e78" />
    <path d="m8 6h48v10h-48z" fill="#f1f1f1" />
    <path d="m24 12h4v4h-4z" fill="#71b38e" />
    <path d="m36 12h4v4h-4z" fill="#f8cf6a" />
    <path d="m48 12h4v4h-4z" fill="#dc6068" />
    <path d="m52 12h4v4h-4z" fill="#f8cf6a" />
    <path d="m8 10h4v6h-4z" fill="#dc6068" />
    <path d="m12 10h4v6h-4z" fill="#f8cf6a" />
    <path d="m16 10h4v6h-4z" fill="#dc6068" />
    <path d="m20 10h4v6h-4z" fill="#f8cf6a" />
    <path d="m28 10h4v6h-4z" fill="#f8cf6a" />
    <path d="m32 10h4v6h-4z" fill="#71b38e" />
    <path d="m40 10h4v6h-4z" fill="#71b38e" />
    <path d="m44 10h4v6h-4z" fill="#f8cf6a" />
    <path d="m61 38h-2v-35h-54v35h-2v-36c0-.552.448-1 1-1h56c.552 0 1 .448 1 1z" />
    <path d="m4 42h56v20h-56z" fill="#98775a" />
    <path d="m4 42h53v20h-53z" fill="#cb9e78" />
    <path d="m21 48h22v8h-22z" fill="#e3e3e3" />
    <path d="m21 48h19v8h-19z" fill="#f1f1f1" />
    <path d="m2 38h60v4h-60z" fill="#98775a" />
    <path d="m2 38h57v4h-57z" fill="#cb9e78" />
    <path
        d="m62 43h-60c-.552 0-1-.448-1-1v-4c0-.552.448-1 1-1h60c.552 0 1 .448 1 1v4c0 .552-.448 1-1 1zm-59-2h58v-2h-58z" />
    <path
        d="m56 17h-48c-.552 0-1-.448-1-1v-10c0-.552.448-1 1-1h48c.552 0 1 .448 1 1v10c0 .552-.448 1-1 1zm-47-2h46v-8h-46z" />
    <path d="m4 19h56v2h-56z" />
    <path d="m60 63h-56c-.552 0-1-.448-1-1v-20h2v19h54v-19h2v20c0 .552-.448 1-1 1z" />
    <path
        d="m12 31c-2.206 0-4-1.794-4-4s1.794-4 4-4 4 1.794 4 4-1.794 4-4 4zm0-6c-1.103 0-2 .897-2 2s.897 2 2 2 2-.897 2-2-.897-2-2-2z" />
    <path d="m17 38h-2v-4c0-1.654-1.346-3-3-3s-3 1.346-3 3v4h-2v-4c0-2.757 2.243-5 5-5s5 2.243 5 5z" />
    <path d="m35 38h-2v-5h-10v5h-2v-6c0-.552.448-1 1-1h12c.552 0 1 .448 1 1z" />
    <path d="m30 28h2v4h-2z" />
    <path d="m34 29h-6c-.552 0-1-.448-1-1v-4c0-.552.448-1 1-1h6c.552 0 1 .448 1 1v4c0 .552-.448 1-1 1zm-5-2h4v-2h-4z" />
    <path
        d="m43 57h-22c-.552 0-1-.448-1-1v-8c0-.552.448-1 1-1h22c.552 0 1 .448 1 1v8c0 .552-.448 1-1 1zm-21-2h20v-6h-20z" />
    <path d="m24 51h16v2h-16z" />
    <path d="m25 16h-2v-5h-15v-2h16c.552 0 1 .448 1 1z" />
    <path d="m37 16h-2v-5h-6v5h-2v-6c0-.552.448-1 1-1h8c.552 0 1 .448 1 1z" />
    <path d="m49 16h-2v-5h-6v5h-2v-6c0-.552.448-1 1-1h8c.552 0 1 .448 1 1z" />
    <path d="m24 11h4v2h-4z" />
    <path d="m11 10h2v6h-2z" />
    <path d="m19 10h2v6h-2z" />
    <path d="m15 10h2v6h-2z" />
    <path d="m25 16h-2v-5h-15v-2h16c.552 0 1 .448 1 1z" />
    <path d="m15 10h2v6h-2z" />
    <path d="m31 10h2v6h-2z" />
    <path d="m36 11h4v2h-4z" />
    <path d="m43 10h2v6h-2z" />
    <path d="m48 11h8v2h-8z" />
    <path d="m51 12h2v4h-2z" />
    <path d="m49 38h-2v-7h-6v7h-2v-8c0-.552.448-1 1-1h8c.552 0 1 .448 1 1z" />
    <path d="m57 38h-2v-7h-2v7h-2v-8c0-.552.448-1 1-1h4c.552 0 1 .448 1 1z" />
    <path d="m43 30h2v8h-2z" />
    <path d="m48 31h4v2h-4z" />
    <path d="m56 31h4v2h-4z" /></svg>