<svg height="512" viewBox="0 0 64 64" width="512" xmlns="http://www.w3.org/2000/svg"><g id="Personnel"><path d="m61 49.87v11.13h-21v-12.5l6-1.5-4-6 14.24 3a6 6 0 0 1 4.76 5.87z" fill="#bdfdff"/><path d="m61 49.87v11.13h-4v-11.13a6 6 0 0 0 -4.76-5.87l-9.59-2.02-.65-.98 14.24 3a6 6 0 0 1 4.76 5.87z" fill="#46f8ff"/><path d="m54 19h-4l-7-5-17 5h-4a16 16 0 1 1 32 0z" fill="#a78966"/><path d="m54 19h-4a15.964 15.964 0 0 0 -14-15.87 14.713 14.713 0 0 1 2-.13 15.979 15.979 0 0 1 16 16z" fill="#806749"/><path d="m52.83 20.17a4 4 0 0 1 -2.83 6.83h-.04c.03-.33.04-.66.04-1v-7a4.025 4.025 0 0 1 2.83 1.17z" fill="#ffa733"/><path d="m50 19v7c0 .34-.01.67-.04 1a11.976 11.976 0 0 1 -7.96 10.31 11.939 11.939 0 0 1 -8 0 11.976 11.976 0 0 1 -7.96-10.31c-.03-.33-.04-.66-.04-1v-7l17-5z" fill="#ffb655"/><path d="m50 19v7c0 .34-.01.67-.04 1a11.976 11.976 0 0 1 -7.96 10.31 11.8 11.8 0 0 1 -4 .69 12 12 0 0 1 -2-.17 11.082 11.082 0 0 0 2-.52 11.976 11.976 0 0 0 7.96-10.31c.03-.33.04-.66.04-1v-7l-5.83-4.17 2.83-.83z" fill="#ff9811"/><path d="m47 22v4h-6v-2-2z" fill="#c6c5ca"/><path d="m42 41 4 6-6 1.5-2 .5z" fill="#2488ff"/><path d="m42 37.31v3.69l-4 8-4-8v-3.69a11.939 11.939 0 0 0 8 0z" fill="#ffa733"/><path d="m40 48.5v12.5h-4v-12.5l2 .5z" fill="#57a4ff"/><path d="m34 41 4 8-2-.5-6-1.5z" fill="#2488ff"/><path d="m36 48.5v12.5h-21v-4h6a2.006 2.006 0 0 0 2-2v-11.68l11-2.32-4 6z" fill="#bdfdff"/><path d="m35 24v2h-6v-4h6z" fill="#c6c5ca"/><path d="m44 22h3v4h-3z" fill="#898890"/><path d="m32 22h3v4h-3z" fill="#898890"/><path d="m26.04 27h-.04a4 4 0 1 1 0-8v7c0 .34.01.67.04 1z" fill="#ffa733"/><rect fill="#c6c5ca" height="28" rx="2" width="20" x="3" y="29"/><path d="m23 31v24a2.006 2.006 0 0 1 -2 2h-4a2.006 2.006 0 0 0 2-2v-24a2.006 2.006 0 0 0 -2-2h4a2.006 2.006 0 0 1 2 2z" fill="#898890"/><path d="m15 49h4v4h-4z" fill="#57a4ff"/><path d="m15 41h4v4h-4z" fill="#ffde55"/><path d="m7 33h12v4h-12z" fill="#bdfdff"/><path d="m15 33h4v4h-4z" fill="#46f8ff"/><path d="m7 49h4v4h-4z" fill="#ff3051"/><path d="m7 41h4v4h-4z" fill="#9cdd05"/><path d="m17 49h2v4h-2z" fill="#006df0"/><path d="m17 41h2v4h-2z" fill="#ebbf00"/><path d="m9 49h2v4h-2z" fill="#cd2a00"/><path d="m9 41h2v4h-2z" fill="#5eac24"/><path d="m43 31h-2c0 .249-1.064 1-3 1s-3-.751-3-1h-2c0 1.71 2.149 3 5 3s5-1.29 5-3z"/><path d="m56.446 43.021-13.446-2.832v-2.189a13.027 13.027 0 0 0 7.843-10.082 4.96 4.96 0 0 0 3.131-7.918h.026a1 1 0 0 0 1-1 17 17 0 0 0 -34 0 1 1 0 0 0 1 1h.025a4.958 4.958 0 0 0 3.132 7.912 13.026 13.026 0 0 0 7.843 10.088v2.192l-9 1.9v-11.092a3 3 0 0 0 -3-3h-16a3 3 0 0 0 -3 3v24a3 3 0 0 0 3 3h9v3a1 1 0 0 0 1 1h46a1 1 0 0 0 1-1v-11.13a7.024 7.024 0 0 0 -5.554-6.849zm-20.313 4.479-4.514-1.128 2.257-3.385zm3.734 0 2.257-4.513 2.257 3.385zm6.719-26.5h-5.586a1 1 0 0 0 -1 1v1h-4v-1a1 1 0 0 0 -1-1h-5.586l-1.514-1.516 14.915-4.384 5.643 4.031zm-.586 2v2h-4v-2zm-12 0v2h-4v-2zm17 2.81v-5.63a2.96 2.96 0 0 1 2 2.82 2.987 2.987 0 0 1 -2 2.81zm-13-21.81a15.021 15.021 0 0 1 14.967 14h-2.646l-6.74-4.814a1 1 0 0 0 -.863-.145l-16.862 4.959h-2.823a15.021 15.021 0 0 1 14.967-14zm-15 19a3.01 3.01 0 0 1 .872-2.118 3.063 3.063 0 0 1 1.128-.7v5.633a3 3 0 0 1 -2-2.815zm4 3v-4.586l1 1v3.586a1 1 0 0 0 1 1h6a1 1 0 0 0 1-1v-1h4v1a1 1 0 0 0 1 1h6a1 1 0 0 0 1-1v-3.586l1-1v4.586a11 11 0 0 1 -22 0zm11 13a12.961 12.961 0 0 0 3-.363v2.127l-3 6-3-6v-2.127a12.961 12.961 0 0 0 3 .363zm-34 16v-24a1 1 0 0 1 1-1h16a1 1 0 0 1 1 1v24a1 1 0 0 1 -1 1h-16a1 1 0 0 1 -1-1zm12 3h5a3 3 0 0 0 3-3v-10.869l7.809-1.647-2.641 3.961a1 1 0 0 0 .589 1.525l5.243 1.311v10.719h-19zm21 2v-10.219l.757.189a.878.878 0 0 0 .484 0l.759-.189v10.219zm23 0h-6v-7h-2v7h-11v-10.719l5.243-1.311a1 1 0 0 0 .589-1.525l-2.641-3.961 11.844 2.495a5.014 5.014 0 0 1 3.965 4.891z"/><path d="m27 54h6v2h-6z"/><path d="m43 54h6v2h-6z"/><path d="m19 32h-12a1 1 0 0 0 -1 1v4a1 1 0 0 0 1 1h12a1 1 0 0 0 1-1v-4a1 1 0 0 0 -1-1zm-1 4h-10v-2h10z"/><path d="m11 40h-4a1 1 0 0 0 -1 1v4a1 1 0 0 0 1 1h4a1 1 0 0 0 1-1v-4a1 1 0 0 0 -1-1zm-1 4h-2v-2h2z"/><path d="m19 40h-4a1 1 0 0 0 -1 1v4a1 1 0 0 0 1 1h4a1 1 0 0 0 1-1v-4a1 1 0 0 0 -1-1zm-1 4h-2v-2h2z"/><path d="m19 48h-4a1 1 0 0 0 -1 1v4a1 1 0 0 0 1 1h4a1 1 0 0 0 1-1v-4a1 1 0 0 0 -1-1zm-1 4h-2v-2h2z"/><path d="m11 48h-4a1 1 0 0 0 -1 1v4a1 1 0 0 0 1 1h4a1 1 0 0 0 1-1v-4a1 1 0 0 0 -1-1zm-1 4h-2v-2h2z"/><path d="m4 8h4v2h-4z"/><path d="m10 8h9v2h-9z"/><path d="m4 14h4v2h-4z"/><path d="m10 14h9v2h-9z"/><path d="m4 20h4v2h-4z"/><path d="m10 20h9v2h-9z"/></g></svg>