<?xml version="1.0" encoding="UTF-8" standalone="no"?>
<!-- Created with Inkscape (http://www.inkscape.org/) -->

<svg
   xmlns:dc="http://purl.org/dc/elements/1.1/"
   xmlns:cc="http://creativecommons.org/ns#"
   xmlns:rdf="http://www.w3.org/1999/02/22-rdf-syntax-ns#"
   xmlns:svg="http://www.w3.org/2000/svg"
   xmlns="http://www.w3.org/2000/svg"
   xmlns:sodipodi="http://sodipodi.sourceforge.net/DTD/sodipodi-0.dtd"
   xmlns:inkscape="http://www.inkscape.org/namespaces/inkscape"
   width="99.191765mm"
   height="134.80547mm"
   viewBox="0 0 99.191765 134.80547"
   version="1.1"
   id="svg8"
   sodipodi:docname="avatar.svg"
   inkscape:version="0.92.4 (5da689c313, 2019-01-14)">
  <defs
     id="defs2" />
  <sodipodi:namedview
     id="base"
     pagecolor="#ffffff"
     bordercolor="#666666"
     borderopacity="1.0"
     inkscape:pageopacity="0.0"
     inkscape:pageshadow="2"
     inkscape:zoom="0.7"
     inkscape:cx="-189.25941"
     inkscape:cy="294.12146"
     inkscape:document-units="mm"
     inkscape:current-layer="g4666"
     showgrid="false"
     inkscape:window-width="1920"
     inkscape:window-height="1017"
     inkscape:window-x="-8"
     inkscape:window-y="-8"
     inkscape:window-maximized="1" />
  <metadata
     id="metadata5">
    <rdf:RDF>
      <cc:Work
         rdf:about="">
        <dc:format>image/svg+xml</dc:format>
        <dc:type
           rdf:resource="http://purl.org/dc/dcmitype/StillImage" />
      </cc:Work>
    </rdf:RDF>
  </metadata>
  <g
     inkscape:label="Layer 1"
     inkscape:groupmode="layer"
     id="layer1"
     transform="translate(-63.041024,-194.39804)">
    <g
       id="g4666"
       transform="matrix(0.26458333,0,0,0.26458333,44.903308,193.73632)">
      <path
         id="path4518"
         d="m 349.726,153.369 h -8.52 v 51.122 h 8.52 c 14.118,0 25.561,-11.443 25.561,-25.561 0,-14.118 -11.452,-25.561 -25.561,-25.561 z"
         style="fill:#e95504;fill-opacity:1"
         inkscape:connector-curvature="0" />
      <path
         id="path4520"
         d="m 136.715,178.931 c 0,14.118 11.443,25.561 25.561,25.561 h 8.52 V 153.37 h -8.52 c -14.118,-0.001 -25.561,11.442 -25.561,25.561 z"
         style="fill:#db531c;fill-opacity:1"
         inkscape:connector-curvature="0" />
      <path
         id="path4522"
         d="M 349.726,153.369 359.78,101.65 c 3.297,-19.631 -9.952,-38.214 -29.583,-41.511 -1.994,-0.332 -4.013,-0.494 -6.032,-0.494 v 0 C 319.07,44.393 304.798,34.101 288.72,34.084 H 187.838 L 178.60243,42.286399 162.277,17.042 c -5.10838,-7.8992122 -23.533,61.662 -0.017,85.187 0.009,0.009 0.009,0.017 0.017,0.017 h 153.367 z"
         style="fill:#000000;fill-opacity:1"
         inkscape:connector-curvature="0"
         sodipodi:nodetypes="ccccccccscscc" />
      <path
         id="path4524"
         d="m 375.798,349.935 -61.773,-8.52 -58.024,33.485 -58.024,-33.144 -61.773,8.52 c -33.724,4.507 -58.961,33.196 -59.132,67.226 v 93.725 H 434.93 v -93.725 c 0,-34.15 -25.28,-63.042 -59.132,-67.567 z"
         style="fill:#dbdbdb"
         inkscape:connector-curvature="0" />
      <polygon
         id="polygon4526"
         points="204.879,340.818 197.977,341.756 256.001,374.9 314.025,341.756 307.123,340.818 307.123,281.176 204.879,281.176 "
         style="fill:#fda576;fill-opacity:1" />
      <g
         id="g4532">
	<polygon
   id="polygon4528"
   points="204.879,408.982 256.001,374.9 204.879,340.818 187.838,340.818 "
   style="fill:#eaeaea" />

	<polygon
   id="polygon4530"
   points="256.001,374.9 307.123,408.982 324.164,340.818 307.123,340.818 "
   style="fill:#eaeaea" />

</g>
      <polyline
         id="polyline4534"
         points="230.44,511.227 238.96,417.502 230.44,391.941 256.001,374.9 281.562,391.941   273.042,417.502 281.562,511.227 "
         style="fill:#2e6aa3" />
      <path
         id="path4536"
         d="M 307.123,328.379 V 281.176 H 204.879 v 47.203 c 38.341,16.614 63.903,16.614 102.244,0 z"
         style="fill:#ea865d;fill-opacity:1"
         inkscape:connector-curvature="0" />
      <path
         id="path4538"
         d="m 77.072,417.502 v 93.725 h 34.082 V 358.541 c -21.071,12.167 -34.065,34.635 -34.082,58.961 z"
         style="fill:#bfbfbf"
         inkscape:connector-curvature="0" />
      <path
         id="path4540"
         d="m 349.726,153.369 v 48.566 c -0.009,24.036 -6.135,47.663 -17.808,68.675 v 0 c -15.32,27.564 -44.383,44.655 -75.917,44.647 v 0 c -31.534,0.009 -60.597,-17.083 -75.917,-44.647 v 0 c -11.673,-21.011 -17.799,-44.638 -17.808,-68.675 v -99.689 h 153.367 z"
         style="fill:#c94a03;fill-opacity:1"
         inkscape:connector-curvature="0" />
      <path
         id="path4542"
         d="m 196.358,102.247 h -34.082 v 99.689 c 0.009,24.036 6.135,47.663 17.808,68.675 8.52,15.252 21.48,27.555 37.149,35.275 -29.395,-84.353 -20.875,-203.639 -20.875,-203.639 z"
         style="fill:#e97a4d;fill-opacity:1"
         inkscape:connector-curvature="0" />
      <path
         id="path4544"
         d="m 146.429,45.331 c -5.061,20.44 0.954,42.031 15.848,56.916 h 136.327 c -96.793,0 -136.328,-34.082 -152.175,-56.916 z"
         style="fill:#ffffff;fill-opacity:1"
         inkscape:connector-curvature="0" />
      <path
         id="path4546"
         d="m 349.726,213.012 h -8.52 v -17.041 h 8.52 c 9.398,0 17.041,-7.643 17.041,-17.041 0,-9.398 -7.643,-17.041 -17.041,-17.041 h -8.52 v -17.041 h 8.52 c 18.796,0 34.082,15.286 34.082,34.082 0,18.796 -15.286,34.082 -34.082,34.082 z"
         inkscape:connector-curvature="0" />
      <path
         id="path4548"
         d="m 170.797,213.012 h -8.52 c -18.796,0 -34.082,-15.286 -34.082,-34.082 0,-18.796 15.286,-34.082 34.082,-34.082 h 8.52 v 17.041 h -8.52 c -9.398,0 -17.041,7.643 -17.041,17.041 0,9.398 7.643,17.041 17.041,17.041 h 8.52 z"
         inkscape:connector-curvature="0" />
      <path
         id="path4550"
         d="M 264.521,230.053 H 238.96 c -2.675,0 -5.189,-1.253 -6.799,-3.391 -1.61,-2.139 -2.13,-4.899 -1.389,-7.472 l 17.041,-59.643 16.385,4.686 -13.948,48.779 h 14.263 v 17.041 z"
         inkscape:connector-curvature="0" />
      <path
         id="path4552"
         d="m 256.018,323.778 c -0.017,0 -0.034,0 -0.051,0 -34.593,0 -66.527,-18.779 -83.338,-49.035 -12.346,-22.213 -18.873,-47.391 -18.881,-72.798 v -99.697 c 0,-4.703 3.817,-8.52 8.52,-8.52 h 153.367 c 2.846,0 5.504,1.423 7.089,3.792 l 34.082,51.122 c 0.929,1.397 1.431,3.042 1.431,4.729 v 48.566 c -0.009,25.408 -6.544,50.586 -18.881,72.807 -16.802,30.246 -48.737,49.034 -83.338,49.034 z m -0.026,-17.041 c 0.008,0 0.017,0 0.017,0 28.424,0 54.65,-15.43 68.453,-40.267 10.94,-19.699 16.726,-42.014 16.734,-64.542 v -45.985 l -30.12,-45.175 h -140.28 v 91.168 c 0.009,22.528 5.794,44.843 16.734,64.534 13.803,24.846 40.029,40.267 68.444,40.267 0.01,0 0.018,0 0.018,0 z"
         inkscape:connector-curvature="0" />
      <path
         id="path4554"
         d="m 248.929,264.135 h -9.969 v -17.041 h 9.969 c 13.266,-0.009 25.74,-5.172 35.13,-14.553 l 12.048,12.056 c -12.611,12.594 -29.362,19.529 -47.178,19.538 z"
         inkscape:connector-curvature="0" />
      <circle
         id="circle4556"
         r="17.041"
         cy="170.41"
         cx="204.91299" />
      <circle
         id="circle4558"
         r="17.041"
         cy="170.41"
         cx="307.15799" />
      <path
         id="path4560"
         d="m 358.127,163.296 -16.811,-2.803 10.054,-60.239 c 1.218,-7.259 -0.46,-14.553 -4.729,-20.534 -4.269,-5.981 -10.608,-9.952 -17.859,-11.17 -1.517,-0.256 -3.238,-0.443 -4.61,-0.375 h -0.017 c -3.664,0 -6.927,-2.343 -8.077,-5.819 -3.945,-11.801 -14.945,-19.733 -27.376,-19.75 H 187.838 c -2.846,0 -4.93579,-0.602251 -9.23557,-0.319601 l -13.36444,4.23707 -6.66871,-7.419297 C 175.57432,45.837714 153.143,45.826 153.143,59.638 c 0,13.82 5.376,26.805 15.141,36.57 l -12.039,12.065 c -26.814,-26.822 -29.97073,-95.069469 0,-97.252 l 8.52,-8.52 c 43.34852,32.420918 1.10814,24.492985 3.64714,24.756985 2.539,0.247 8.05086,-25.583985 9.46486,-23.461985 l 14.519,21.77 h 96.323 c 17.799,0.017 33.741,10.233 41.324,25.936 0.528,0.068 1.039,0.145 1.568,0.23 11.75,1.968 22.017,8.393 28.927,18.089 6.91,9.696 9.628,21.497 7.651,33.238 z"
         inkscape:connector-curvature="0"
         sodipodi:nodetypes="cccsccsccscccsccccccccccscc" />
      <path
         id="path4562"
         d="M 85.593,511.227 H 68.552 v -93.725 c 0,-38.257 28.594,-70.932 66.527,-76.011 l 61.279,-8.137 v -35.138 h 17.041 v 42.602 c 0,4.269 -3.161,7.881 -7.396,8.444 l -68.674,9.117 c -29.489,3.945 -51.736,29.353 -51.736,59.115 z"
         inkscape:connector-curvature="0" />
      <path
         id="path4564"
         d="m 443.45,511.227 h -17.041 v -93.725 c 0,-29.762 -22.238,-55.178 -51.744,-59.115 l -68.666,-9.117 c -4.235,-0.562 -7.396,-4.175 -7.396,-8.444 v -42.602 h 17.041 v 35.138 l 61.27,8.137 c 37.933,5.07 66.536,37.754 66.536,76.011 z"
         inkscape:connector-curvature="0" />
      <rect
         id="rect4566"
         height="68.163002"
         width="17.041"
         y="443.06299"
         x="136.74899" />
      <rect
         id="rect4568"
         height="68.163002"
         width="17.041"
         y="443.06299"
         x="358.28" />
      <path
         id="path4570"
         d="m 204.879,417.502 c -1.039,0 -2.079,-0.187 -3.076,-0.571 -2.582,-0.997 -4.516,-3.195 -5.189,-5.879 l -17.041,-68.163 16.53,-4.124 14.11,56.431 41.06,-27.376 9.449,14.178 -51.122,34.082 c -1.416,0.945 -3.069,1.422 -4.721,1.422 z"
         inkscape:connector-curvature="0" />
      <path
         id="path4572"
         d="m 256.001,383.42 c -1.457,0 -2.914,-0.375 -4.226,-1.125 l -59.643,-34.082 8.452,-14.791 55.417,31.67 55.417,-31.67 8.452,14.791 -59.643,34.082 c -1.312,0.751 -2.769,1.125 -4.226,1.125 z"
         inkscape:connector-curvature="0" />
      <path
         id="path4574"
         d="m 307.123,417.502 c -1.653,0 -3.306,-0.486 -4.729,-1.431 l -51.122,-34.082 9.449,-14.178 41.06,27.376 14.11,-56.431 16.521,4.124 -17.041,68.163 c -0.665,2.684 -2.607,4.882 -5.189,5.879 -0.98,0.393 -2.019,0.58 -3.059,0.58 z"
         inkscape:connector-curvature="0" />
      <path
         id="path4576"
         d="m 238.926,512.002 -16.973,-1.551 8.359,-91.944 -7.958,-23.874 16.163,-5.393 8.52,25.561 c 0.366,1.116 0.511,2.301 0.4,3.468 z"
         inkscape:connector-curvature="0" />
      <path
         id="path4578"
         d="m 273.067,512.002 -8.52,-93.725 c -0.102,-1.176 0.034,-2.352 0.409,-3.468 l 8.52,-25.561 16.155,5.393 -7.958,23.874 8.359,91.944 z"
         inkscape:connector-curvature="0" />
      <rect
         id="rect4580"
         height="17.041"
         width="34.082001"
         y="408.98199"
         x="238.994" />
      <g
         id="g4582">
</g>
      <g
         id="g4584">
</g>
      <g
         id="g4586">
</g>
      <g
         id="g4588">
</g>
      <g
         id="g4590">
</g>
      <g
         id="g4592">
</g>
      <g
         id="g4594">
</g>
      <g
         id="g4596">
</g>
      <g
         id="g4598">
</g>
      <g
         id="g4600">
</g>
      <g
         id="g4602">
</g>
      <g
         id="g4604">
</g>
      <g
         id="g4606">
</g>
      <g
         id="g4608">
</g>
      <g
         id="g4610">
</g>
    </g>
  </g>
</svg>
