<?xml version="1.0" encoding="UTF-8" standalone="no"?>
<svg
   xmlns:dc="http://purl.org/dc/elements/1.1/"
   xmlns:cc="http://creativecommons.org/ns#"
   xmlns:rdf="http://www.w3.org/1999/02/22-rdf-syntax-ns#"
   xmlns:svg="http://www.w3.org/2000/svg"
   xmlns="http://www.w3.org/2000/svg"
   xmlns:sodipodi="http://sodipodi.sourceforge.net/DTD/sodipodi-0.dtd"
   xmlns:inkscape="http://www.inkscape.org/namespaces/inkscape"
   id="Capa_1"
   enable-background="new 0 0 512 512"
   height="256.00101"
   viewBox="0 0 511.99899 256.00101"
   width="511.99899"
   version="1.1"
   sodipodi:docname="bench.svg"
   inkscape:version="0.92.4 (5da689c313, 2019-01-14)">
  <metadata
     id="metadata39">
    <rdf:RDF>
      <cc:Work
         rdf:about="">
        <dc:format>image/svg+xml</dc:format>
        <dc:type
           rdf:resource="http://purl.org/dc/dcmitype/StillImage" />
      </cc:Work>
    </rdf:RDF>
  </metadata>
  <defs
     id="defs37" />
  <sodipodi:namedview
     pagecolor="#ffffff"
     bordercolor="#666666"
     borderopacity="1"
     objecttolerance="10"
     gridtolerance="10"
     guidetolerance="10"
     inkscape:pageopacity="0"
     inkscape:pageshadow="2"
     inkscape:window-width="1600"
     inkscape:window-height="821"
     id="namedview35"
     showgrid="false"
     inkscape:zoom="0.4609375"
     inkscape:cx="256"
     inkscape:cy="128"
     inkscape:window-x="-9"
     inkscape:window-y="-9"
     inkscape:window-maximized="1"
     inkscape:current-layer="Capa_1" />
  <g
     id="g32"
     transform="translate(0,-127.999)">
    <g
       id="g10">
      <g
         id="g4">
        <path
           d="m 42.947,384 c -6.718,0 -11.929,-5.885 -11.14,-12.579 l 16,-151.626 H 82.936 L 54.017,374.564 C 53.128,380.006 48.442,384 42.947,384 Z"
           id="path2"
           inkscape:connector-curvature="0"
           style="fill:#ecbd83" />
      </g>
      <g
         id="g8">
        <path
           d="m 469.053,384 c 6.718,0 11.929,-5.885 11.14,-12.579 l -16,-151.626 h -35.129 l 28.918,154.769 c 0.89,5.442 5.576,9.436 11.071,9.436 z"
           id="path6"
           inkscape:connector-curvature="0"
           style="fill:#ecbd83" />
      </g>
    </g>
    <path
       d="M 47.811,219.798 H 82.94 l -3.956,21.15 H 45.575 Z"
       id="path12"
       inkscape:connector-curvature="0"
       style="fill:#d39667" />
    <path
       d="m 466.425,240.948 h -33.409 l -3.956,-21.15 h 35.129 z"
       id="path14"
       inkscape:connector-curvature="0"
       style="fill:#d39667" />
    <path
       d="M 497.398,193.034 H 14.602 v -40.941 c 0,-13.307 10.787,-24.094 24.094,-24.094 h 434.608 c 13.307,0 24.094,10.787 24.094,24.094 z"
       id="path16"
       inkscape:connector-curvature="0"
       style="fill:#fee07d" />
    <path
       d="m 14.602,170.968 h 482.796 v 22.067 H 14.602 Z"
       id="path18"
       inkscape:connector-curvature="0"
       style="fill:#ffc269" />
    <g
       id="g28">
      <g
         id="g22">
        <path
           d="m 82.94,219.798 -3.956,21.15 H 45.575 l 2.236,-21.15 z"
           id="path20"
           inkscape:connector-curvature="0"
           style="fill:#d39667" />
      </g>
      <g
         id="g26">
        <path
           d="m 466.425,240.948 h -33.409 l -3.956,-21.15 h 35.129 z"
           id="path24"
           inkscape:connector-curvature="0"
           style="fill:#d39667" />
      </g>
    </g>
    <path
       d="M 497.517,220.367 H 14.483 C 6.484,220.367 0,213.882 0,205.883 v -0.434 c 0,-7.999 6.484,-14.483 14.483,-14.483 h 483.033 c 7.999,0 14.483,6.484 14.483,14.483 v 0.434 c 10e-4,7.999 -6.483,14.484 -14.482,14.484 z"
       id="path30"
       inkscape:connector-curvature="0"
       style="fill:#5d5260" />
  </g>
</svg>
