<svg height="480pt" viewBox="0 -77 480 480" width="480pt" xmlns="http://www.w3.org/2000/svg"><path d="m456 206.28125h-432c-8.835938 0-16 7.160156-16 16v16c0 8.835938 7.164062 16 16 16h432c8.835938 0 16-7.164062 16-16v-16c0-8.839844-7.164062-16-16-16zm0 0" fill="#9bc9ff"/><path d="m240 14.28125h64v192h-64zm0 0" fill="#9bc9ff"/><path d="m304 14.28125v192h64v-192zm0 0" fill="#9bc9ff"/><path d="m368 46.28125h64v160h-64zm0 0" fill="#9bc9ff"/><path d="m80.578125 174.277344 96-166.277344 55.425781 32-96 166.277344zm0 0" fill="#9bc9ff"/><g fill="#1e81ce"><path d="m456 198.28125h-16v-152c0-4.417969-3.582031-8-8-8h-56v-24c0-4.417969-3.582031-8-8-8h-128c-4.417969 0-8 3.582031-8 8v16.476562l-51.425781-29.6875c-3.824219-2.207031-8.71875-.898437-10.925781 2.929688l-96 166.28125c-2.210938 3.824219-.898438 8.71875 2.925781 10.925781l29.570312 17.074219h-82.144531c-13.253906 0-24 10.742188-24 24v16c0 13.253906 10.746094 24 24 24h24v56c0 4.417969 3.582031 8 8 8h32c4.417969 0 8-3.582031 8-8v-56h288v56c0 4.417969 3.582031 8 8 8h32c4.417969 0 8-3.582031 8-8v-56h24c13.253906 0 24-10.746094 24-24v-16c0-13.257812-10.746094-24-24-24zm-32-144v144h-48v-144zm-64 144h-48v-176h48zm-112-176h48v176h-48zm-68.496094-3.34375 41.601563 24-88 152.414062-41.601563-24zm52.496094 37.070312v142.273438h-82.144531zm-152 254.273438h-16v-48h16zm336 0h-16v-48h16zm48-72c0 4.417969-3.582031 8-8 8h-432c-4.417969 0-8-3.582031-8-8v-16c0-4.417969 3.582031-8 8-8h432c4.417969 0 8 3.582031 8 8zm0 0"/><path d="m280 30.28125h-16c-4.417969 0-8 3.582031-8 8s3.582031 8 8 8h16c4.417969 0 8-3.582031 8-8s-3.582031-8-8-8zm0 0"/><path d="m328 46.28125h16c4.417969 0 8-3.582031 8-8s-3.582031-8-8-8h-16c-4.417969 0-8 3.582031-8 8s3.582031 8 8 8zm0 0"/><path d="m392 78.28125h16c4.417969 0 8-3.582031 8-8s-3.582031-8-8-8h-16c-4.417969 0-8 3.582031-8 8s3.582031 8 8 8zm0 0"/><path d="m280 174.28125h-16c-4.417969 0-8 3.582031-8 8s3.582031 8 8 8h16c4.417969 0 8-3.582031 8-8s-3.582031-8-8-8zm0 0"/><path d="m181.359375 47.71875 13.855469 8c3.828125 2.210938 8.722656.898438 10.933594-2.929688 2.207031-3.828124.894531-8.722656-2.933594-10.933593l-13.855469-8c-3.828125-2.207031-8.722656-.894531-10.929687 2.933593-2.210938 3.828126-.898438 8.722657 2.929687 10.929688zm0 0"/><path d="m131.199219 166.566406-13.855469-8c-3.824219-2.171875-8.683594-.851562-10.882812 2.957032-2.199219 3.808593-.910157 8.675781 2.882812 10.898437l13.855469 8c2.476562 1.453125 5.542969 1.46875 8.03125.039063 2.488281-1.429688 4.023437-4.085938 4.015625-6.957032-.007813-2.871094-1.550782-5.515625-4.046875-6.9375zm0 0"/><path d="m328 190.28125h16c4.417969 0 8-3.582031 8-8s-3.582031-8-8-8h-16c-4.417969 0-8 3.582031-8 8s3.582031 8 8 8zm0 0"/><path d="m392 190.28125h16c4.417969 0 8-3.582031 8-8s-3.582031-8-8-8h-16c-4.417969 0-8 3.582031-8 8s3.582031 8 8 8zm0 0"/></g></svg>