<?xml version="1.0" encoding="UTF-8" standalone="no"?>
<!-- Created with Inkscape (http://www.inkscape.org/) -->

<svg
   xmlns:dc="http://purl.org/dc/elements/1.1/"
   xmlns:cc="http://creativecommons.org/ns#"
   xmlns:rdf="http://www.w3.org/1999/02/22-rdf-syntax-ns#"
   xmlns:svg="http://www.w3.org/2000/svg"
   xmlns="http://www.w3.org/2000/svg"
   xmlns:sodipodi="http://sodipodi.sourceforge.net/DTD/sodipodi-0.dtd"
   xmlns:inkscape="http://www.inkscape.org/namespaces/inkscape"
   width="169.33333mm"
   height="169.33333mm"
   viewBox="0 0 169.33333 169.33333"
   version="1.1"
   id="svg8"
   inkscape:version="0.92.4 (5da689c313, 2019-01-14)"
   sodipodi:docname="control-panel.svg">
  <defs
     id="defs2" />
  <sodipodi:namedview
     id="base"
     pagecolor="#ffffff"
     bordercolor="#666666"
     borderopacity="1.0"
     inkscape:pageopacity="0.0"
     inkscape:pageshadow="2"
     inkscape:zoom="0.49497475"
     inkscape:cx="565.48135"
     inkscape:cy="399.94446"
     inkscape:document-units="mm"
     inkscape:current-layer="g913"
     showgrid="false"
     inkscape:window-width="1920"
     inkscape:window-height="1017"
     inkscape:window-x="-8"
     inkscape:window-y="-8"
     inkscape:window-maximized="1" />
  <metadata
     id="metadata5">
    <rdf:RDF>
      <cc:Work
         rdf:about="">
        <dc:format>image/svg+xml</dc:format>
        <dc:type
           rdf:resource="http://purl.org/dc/dcmitype/StillImage" />
        <dc:title></dc:title>
      </cc:Work>
    </rdf:RDF>
  </metadata>
  <g
     inkscape:label="Layer 1"
     inkscape:groupmode="layer"
     id="layer1"
     transform="translate(-19.654761,-32.416667)">
    <g
       id="g913"
       transform="matrix(0.35277778,0,0,0.35277778,19.654761,32.416667)">
      <path
         id="path815"
         d="m 472,24 v 432 c -0.0273,8.82422 -7.17578,15.97266 -16,16 H 24 c -3.832031,0.0234 -7.535156,-1.375 -10.398438,-3.92188 C 10.042969,465.07812 7.992188,460.65625 8,456 V 24 C 8.027344,15.175781 15.175781,8.027344 24,8 h 432 c 8.82422,0.027344 15.97266,7.175781 16,16 z m 0,0"
         inkscape:connector-curvature="0"
         style="fill:#acabb1" />
      <path
         id="path817"
         d="M 472,55.839844 V 456 c -0.0273,8.82422 -7.17578,15.97266 -16,16 H 24 c -3.832031,0.0234 -7.535156,-1.375 -10.398438,-3.92188 C 116.23828,432.48047 398.64062,312.96094 472,55.839844 Z m 0,0"
         inkscape:connector-curvature="0"
         style="fill:#898890" />
      <g
         id="g825"
         style="fill:#ffb655">
        <path
           id="path819"
           d="m 240,160 c -26.71484,0 -49.71094,18.875 -54.92188,45.07812 -5.21093,26.20313 8.81641,52.4375 33.5,62.66016 24.6836,10.22266 53.14844,1.58594 67.98829,-20.6289 14.84375,-22.21485 11.92578,-51.82032 -6.96485,-70.71094 C 269.10547,165.88281 254.85547,159.98438 240,160 Z m 0,0"
           inkscape:connector-curvature="0" />
        <path
           id="path821"
           d="m 423.60156,176.39844 c -18.89062,-18.89063 -48.49609,-21.8086 -70.71094,-6.96485 -22.21484,14.83985 -30.85156,43.30469 -20.6289,67.98828 10.22265,24.6836 36.45703,38.71094 62.66015,33.5 C 421.125,265.71094 440,242.71484 440,216 c 0.0156,-14.85547 -5.88281,-29.10547 -16.39844,-39.60156 z m 0,0"
           inkscape:connector-curvature="0" />
        <path
           id="path823"
           d="m 96,160 c -26.714844,0 -49.710938,18.875 -54.921875,45.07812 -5.210937,26.20313 8.816406,52.4375 33.5,62.66016 24.683594,10.22266 53.148435,1.58594 67.988285,-20.6289 14.84375,-22.21485 11.92578,-51.82032 -6.96485,-70.71094 C 125.10547,165.88281 110.85547,159.98438 96,160 Z m 0,0"
           inkscape:connector-curvature="0" />
      </g>
      <path
         id="path827"
         d="m 40,56 h 112 v 64 H 40 Z m 0,0"
         inkscape:connector-curvature="0"
         style="fill:#ffde55" />
      <path
         id="path829"
         d="m 184,56 h 112 v 64 H 184 Z m 0,0"
         inkscape:connector-curvature="0"
         style="fill:#ffde55" />
      <path
         id="path831"
         d="m 328,56 h 112 v 64 H 328 Z m 0,0"
         inkscape:connector-curvature="0"
         style="fill:#ffde55" />
      <path
         id="path833"
         d="m 72,304 v 120 h 48 V 304 Z m 0,0"
         inkscape:connector-curvature="0"
         style="fill:#5aaae7;stroke:#000000;stroke-width:15;stroke-linejoin:round;stroke-miterlimit:4;stroke-dasharray:none;stroke-opacity:1" />
      <path
         id="path837"
         d="m 224,328 h 32 v 32 h -32 z m 0,0"
         inkscape:connector-curvature="0"
         style="fill:#e6e7e8" />
      <path
         id="path839"
         d="m 224,392 h 32 v 32 h -32 z m 0,0"
         inkscape:connector-curvature="0"
         style="fill:#ff5023" />
      <path
         id="path841"
         d="m 368,328 h 32 v 32 h -32 z m 0,0"
         inkscape:connector-curvature="0"
         style="fill:#e6e7e8" />
      <path
         id="path843"
         d="m 368,392 h 32 v 32 h -32 z m 0,0"
         inkscape:connector-curvature="0"
         style="fill:#ff5023" />
      <path
         id="path845"
         d="M 456,0 H 24 C 10.746094,0 0,10.746094 0,24 v 432 c 0,13.25391 10.746094,24 24,24 h 432 c 13.25391,0 24,-10.74609 24,-24 V 24 C 480,10.746094 469.25391,0 456,0 Z m 8,456 c 0,4.41797 -3.58203,8 -8,8 H 24 c -4.417969,0 -8,-3.58203 -8,-8 V 24 c 0,-4.417969 3.582031,-8 8,-8 h 432 c 4.41797,0 8,3.582031 8,8 z m 0,0"
         inkscape:connector-curvature="0" />
      <path
         id="path847"
         d="m 240,152 c -35.34766,0 -64,28.65234 -64,64 0,35.34766 28.65234,64 64,64 35.34766,0 64,-28.65234 64,-64 -0.0391,-35.32813 -28.67188,-63.96094 -64,-64 z m 0,112 c -23.39844,-0.043 -43.35938,-16.93359 -47.28125,-40 H 208 v -16 h -15.28125 c 1.20312,-7.125 4.00781,-13.88281 8.20312,-19.76953 l 10.78907,10.80078 11.3125,-11.3125 -10.79297,-10.79688 c 5.88672,-4.19531 12.64453,-7 19.76953,-8.20312 V 184 h 16 v -15.28125 c 7.125,1.20312 13.88281,4.00781 19.76953,8.20312 l -10.79297,10.79688 11.3125,11.3125 10.78907,-10.80078 c 4.19531,5.88672 7,12.64453 8.20312,19.76953 H 272 v 16 h 15.28125 C 283.35938,247.06641 263.39844,263.95703 240,264 Z m 0,0"
         inkscape:connector-curvature="0" />
      <path
         id="path849"
         d="m 232,208 h 16 v 40 h -16 z m 0,0"
         inkscape:connector-curvature="0" />
      <path
         id="path851"
         d="m 384,152 c -35.34766,0 -64,28.65234 -64,64 0,35.34766 28.65234,64 64,64 35.34766,0 64,-28.65234 64,-64 -0.0391,-35.32813 -28.67188,-63.96094 -64,-64 z m 0,112 c -23.39844,-0.043 -43.35938,-16.93359 -47.28125,-40 H 352 v -16 h -15.28125 c 1.20312,-7.125 4.00781,-13.88281 8.20312,-19.76953 l 10.78907,10.80078 11.3125,-11.3125 -10.79297,-10.79688 c 5.88672,-4.19531 12.64453,-7 19.76953,-8.20312 V 184 h 16 v -15.28125 c 7.125,1.20312 13.88281,4.00781 19.76953,8.20312 l -10.79297,10.79688 11.3125,11.3125 10.78907,-10.80078 c 4.19531,5.88672 7,12.64453 8.20312,19.76953 H 416 v 16 h 15.28125 C 427.35938,247.06641 407.39844,263.95703 384,264 Z m 0,0"
         inkscape:connector-curvature="0" />
      <path
         id="path853"
         d="m 376,208 h 16 v 40 h -16 z m 0,0"
         inkscape:connector-curvature="0" />
      <path
         id="path855"
         d="m 160,216 c 0,-35.34766 -28.65234,-64 -64,-64 -35.347656,0 -64,28.65234 -64,64 0,35.34766 28.652344,64 64,64 35.32812,-0.0391 63.96094,-28.67188 64,-64 z M 48.71875,224 H 64 V 208 H 48.71875 c 1.203125,-7.125 4.007812,-13.88281 8.203125,-19.76953 l 10.789063,10.80078 11.3125,-11.3125 -10.792969,-10.79688 C 74.117188,172.72656 80.875,169.92187 88,168.71875 V 184 h 16 v -15.28125 c 7.125,1.20312 13.88281,4.00781 19.76953,8.20312 l -10.79297,10.79688 11.3125,11.3125 10.78906,-10.80078 c 4.19532,5.88672 7,12.64453 8.20313,19.76953 H 128 v 16 h 15.28125 C 139.39844,247.08594 119.41016,263.99219 96,263.99219 72.589844,263.99219 52.601562,247.08594 48.71875,224 Z m 0,0"
         inkscape:connector-curvature="0" />
      <path
         id="path857"
         d="m 88,208 h 16 v 40 H 88 Z m 0,0"
         inkscape:connector-curvature="0" />
      <path
         id="path859"
         d="m 40,128 h 112 c 4.41797,0 8,-3.58203 8,-8 V 56 c 0,-4.417969 -3.58203,-8 -8,-8 H 40 c -4.417969,0 -8,3.582031 -8,8 v 64 c 0,4.41797 3.582031,8 8,8 z m 8,-64 h 96 v 48 H 48 Z m 0,0"
         inkscape:connector-curvature="0" />
      <path
         id="path861"
         d="M 296,48 H 184 c -4.41797,0 -8,3.582031 -8,8 v 64 c 0,4.41797 3.58203,8 8,8 h 112 c 4.41797,0 8,-3.58203 8,-8 V 56 c 0,-4.417969 -3.58203,-8 -8,-8 z m -8,64 H 192 V 64 h 96 z m 0,0"
         inkscape:connector-curvature="0" />
      <path
         id="path863"
         d="M 440,48 H 328 c -4.41797,0 -8,3.582031 -8,8 v 64 c 0,4.41797 3.58203,8 8,8 h 112 c 4.41797,0 8,-3.58203 8,-8 V 56 c 0,-4.417969 -3.58203,-8 -8,-8 z m -8,64 H 336 V 64 h 96 z m 0,0"
         inkscape:connector-curvature="0" />
      <path
         id="path867"
         d="m 256,320 h -32 c -4.41797,0 -8,3.58203 -8,8 v 32 c 0,4.41797 3.58203,8 8,8 h 32 c 4.41797,0 8,-3.58203 8,-8 v -32 c 0,-4.41797 -3.58203,-8 -8,-8 z m -8,32 h -16 v -16 h 16 z m 0,0"
         inkscape:connector-curvature="0" />
      <path
         id="path869"
         d="m 256,384 h -32 c -4.41797,0 -8,3.58203 -8,8 v 32 c 0,4.41797 3.58203,8 8,8 h 32 c 4.41797,0 8,-3.58203 8,-8 v -32 c 0,-4.41797 -3.58203,-8 -8,-8 z m -8,32 h -16 v -16 h 16 z m 0,0"
         inkscape:connector-curvature="0" />
      <path
         id="path871"
         d="m 400,320 h -32 c -4.41797,0 -8,3.58203 -8,8 v 32 c 0,4.41797 3.58203,8 8,8 h 32 c 4.41797,0 8,-3.58203 8,-8 v -32 c 0,-4.41797 -3.58203,-8 -8,-8 z m -8,32 h -16 v -16 h 16 z m 0,0"
         inkscape:connector-curvature="0" />
      <path
         id="path873"
         d="m 400,384 h -32 c -4.41797,0 -8,3.58203 -8,8 v 32 c 0,4.41797 3.58203,8 8,8 h 32 c 4.41797,0 8,-3.58203 8,-8 v -32 c 0,-4.41797 -3.58203,-8 -8,-8 z m -8,32 h -16 v -16 h 16 z m 0,0"
         inkscape:connector-curvature="0" />
      <g
         id="g921">
        <path
           inkscape:connector-curvature="0"
           id="path917"
           d="M 95.217496,377.05302 168.22256,320.88426"
           style="fill:none;stroke:#000000;stroke-width:15;stroke-linecap:butt;stroke-linejoin:miter;stroke-miterlimit:4;stroke-dasharray:none;stroke-opacity:1" />
        <path
           style="fill:#ff6243;stroke:#000000;stroke-width:15;stroke-miterlimit:4;stroke-dasharray:none;stroke-opacity:1"
           inkscape:connector-curvature="0"
           d="m 168,296 c -13.25391,0 -24,10.74609 -24,24 0,13.25391 10.74609,24 24,24 13.25391,0 24,-10.74609 24,-24 0,-13.25391 -10.74609,-24 -24,-24 z m 0,0"
           id="path835" />
      </g>
    </g>
  </g>
</svg>
