<?xml version="1.0" encoding="iso-8859-1"?>
<!-- Generator: Adobe Illustrator 19.0.0, SVG Export Plug-In . SVG Version: 6.00 Build 0)  -->
<svg version="1.1" id="Layer_1" xmlns="http://www.w3.org/2000/svg" xmlns:xlink="http://www.w3.org/1999/xlink" x="0px" y="0px"
	 viewBox="0 0 512 512" style="enable-background:new 0 0 512 512;" xml:space="preserve">
<path style="fill:#999999;" d="M444.632,336.842H67.368c-32.742,0-59.284-26.542-59.284-59.284l0,0
	c0-32.742,26.542-59.284,59.284-59.284h377.263c32.742,0,59.284,26.542,59.284,59.284l0,0
	C503.916,310.3,477.374,336.842,444.632,336.842z"/>
<g>
	<path style="fill:#444444;" d="M67.368,250.61h377.263c14.883,0,26.947,12.065,26.947,26.947l0,0
		c0,14.883-12.065,26.947-26.947,26.947H67.368c-14.882,0-26.947-12.065-26.947-26.947l0,0
		C40.421,262.675,52.486,250.61,67.368,250.61z"/>
	<path style="fill:#444444;" d="M503.916,277.558L503.916,277.558c0,32.742-26.542,59.284-59.284,59.284h-43.116
		c32.742,0,59.284-26.542,59.284-59.284l0,0c0-32.742-26.542-59.284-59.284-59.284h43.116
		C477.374,218.274,503.916,244.816,503.916,277.558z"/>
</g>
<path style="fill:#BFBFBF;" d="M471.579,277.558c0,14.883-12.065,26.947-26.947,26.947s-26.947-12.065-26.947-26.947
	c0-14.882,12.065-26.947,26.947-26.947S471.579,262.675,471.579,277.558z M67.368,250.61c-14.882,0-26.947,12.065-26.947,26.947
	c0,14.883,12.065,26.947,26.947,26.947s26.947-12.065,26.947-26.947C94.316,262.675,82.251,250.61,67.368,250.61z M256,250.61
	c-14.882,0-26.947,12.065-26.947,26.947c0,14.883,12.065,26.947,26.947,26.947s26.947-12.065,26.947-26.947
	C282.947,262.675,270.882,250.61,256,250.61z"/>
<path style="fill:#FFD34E;" d="M299.116,482.358v21.558h-86.232v-21.558c0-11.906,9.651-21.558,21.558-21.558h43.116
	C289.464,460.8,299.116,470.451,299.116,482.358z M105.095,460.8H61.979c-11.906,0-21.558,9.651-21.558,21.558v21.558h86.232
	v-21.558C126.653,470.451,117.001,460.8,105.095,460.8z M450.021,460.8h-43.116c-11.906,0-21.558,9.651-21.558,21.558v21.558h86.232
	v-21.558C471.579,470.451,461.927,460.8,450.021,460.8z"/>
<path style="fill:#FF9600;" d="M126.653,482.358v21.558h-21.558v-21.558c0-11.906-9.651-21.558-21.558-21.558h21.558
	C117.001,460.8,126.653,470.451,126.653,482.358z M277.558,460.8H256c11.906,0,21.558,9.651,21.558,21.558v21.558h21.558v-21.558
	C299.116,470.451,289.464,460.8,277.558,460.8z M450.021,460.8h-21.558c11.906,0,21.558,9.651,21.558,21.558v21.558h21.558v-21.558
	C471.579,470.451,461.927,460.8,450.021,460.8z"/>
<path style="fill:#D9B166;" d="M374.568,169.768c0,5.953-4.826,10.779-10.779,10.779H256c-5.953,0-10.779-4.826-10.779-10.779V51.2
	h129.347V169.768z"/>
<path style="fill:#BC8E50;" d="M342.232,51.2h32.337v118.568c0,5.953-4.826,10.779-10.779,10.779h-20.48
	c-0.595,0-1.078-0.483-1.078-1.078V51.2z"/>
<path d="M172.463,153.6c0-4.465,3.618-8.084,8.084-8.084h32.337c4.466,0,8.084,3.62,8.084,8.084c0,4.465-3.618,8.084-8.084,8.084
	h-32.337C176.082,161.684,172.463,158.064,172.463,153.6z M94.316,161.684h32.337c4.466,0,8.084-3.62,8.084-8.084
	c0-4.465-3.618-8.084-8.084-8.084H94.316c-4.466,0-8.084,3.62-8.084,8.084C86.232,158.064,89.85,161.684,94.316,161.684z
	 M129.347,185.937c0,4.465,3.618,8.084,8.084,8.084h75.453c4.466,0,8.084-3.62,8.084-8.084c0-4.465-3.618-8.084-8.084-8.084h-75.453
	C132.966,177.852,129.347,181.472,129.347,185.937z M512,498.526c0,4.465-3.618,8.084-8.084,8.084h-409.6
	c-4.466,0-8.084-3.62-8.084-8.084s3.618-8.084,8.084-8.084h24.253v-13.474c0-7.43-6.044-13.474-13.474-13.474H61.979
	c-7.43,0-13.474,6.044-13.474,13.474v13.474h13.474c4.466,0,8.084,3.62,8.084,8.084s-3.618,8.084-8.084,8.084H8.084
	c-4.466,0-8.084-3.62-8.084-8.084s3.618-8.084,8.084-8.084h24.253v-13.474c0-16.345,13.298-29.642,29.642-29.642h13.474v-56.528
	c0-0.039,0-0.077,0-0.115v-45.757h-8.084C30.221,344.926,0,314.704,0,277.558s30.221-67.368,67.368-67.368h307.2
	c4.466,0,8.084,3.62,8.084,8.084c0,4.465-3.618,8.084-8.084,8.084h-307.2c-28.231,0-51.2,22.968-51.2,51.2
	c0,28.232,22.969,51.2,51.2,51.2h80.781c0.038,0,0.074,0,0.114,0h43.008c0.04,0,0.077,0,0.114,0h129.226c0.038,0,0.074,0,0.114,0
	h43.008c0.04,0,0.077,0,0.114,0h80.784c28.231,0,51.2-22.969,51.2-51.2c0-28.231-22.969-51.2-51.2-51.2h-37.726
	c-4.466,0-8.084-3.62-8.084-8.084c0-4.465,3.618-8.084,8.084-8.084h37.726c37.147,0,67.368,30.222,67.368,67.368
	s-30.221,67.368-67.368,67.368h-8.084v45.757c0,0.039,0,0.077,0,0.115v56.528h13.474c16.344,0,29.642,13.297,29.642,29.642v13.474
	h24.253C508.382,490.442,512,494.062,512,498.526z M386.119,344.926l34.26,28.55v-28.55H386.119z M264.084,373.476l34.26-28.55
	h-34.26V373.476z M213.656,344.926l34.26,28.55v-28.55H213.656z M91.621,373.476l34.26-28.55h-34.26V373.476z M234.442,447.326
	h13.474v-52.803l-59.517-49.597h-37.261l-59.517,49.597v52.803h13.474c16.344,0,29.642,13.297,29.642,29.642v13.474H204.8v-13.474
	C204.8,460.623,218.098,447.326,234.442,447.326z M291.032,476.968c0-7.43-6.044-13.474-13.474-13.474h-43.116
	c-7.43,0-13.474,6.044-13.474,13.474v13.474h70.063V476.968z M406.905,447.326h13.474v-52.803l-59.517-49.597h-37.261
	l-59.517,49.597v52.803h13.474c16.344,0,29.642,13.297,29.642,29.642v13.474h70.063v-13.474
	C377.263,460.623,390.561,447.326,406.905,447.326z M463.495,476.968c0-7.43-6.044-13.474-13.474-13.474h-43.116
	c-7.43,0-13.474,6.044-13.474,13.474v13.474h70.063V476.968z M196.388,19.19c-3.157-3.157-3.157-8.276,0-11.432
	c3.158-3.157,8.276-3.157,11.433,0l40.748,40.748h122.65l40.748-40.748c3.158-3.157,8.276-3.157,11.433,0s3.157,8.276,0,11.432
	l-40.748,40.748v115.22c0,10.401-8.463,18.863-18.863,18.863H256c-10.401,0-18.863-8.463-18.863-18.863V59.937L196.388,19.19z
	 M253.305,175.158c0,1.485,1.208,2.695,2.695,2.695h107.789c1.486,0,2.695-1.209,2.695-2.695V64.674H253.305V175.158z M256,242.526
	c19.317,0,35.032,15.716,35.032,35.032S275.317,312.589,256,312.589s-35.032-15.716-35.032-35.032S236.683,242.526,256,242.526z
	 M256,258.695c-10.401,0-18.863,8.463-18.863,18.863s8.463,18.863,18.863,18.863c10.401,0,18.863-8.463,18.863-18.863
	C274.863,267.157,266.401,258.695,256,258.695z M444.632,312.589c-19.317,0-35.032-15.716-35.032-35.032
	s15.715-35.032,35.032-35.032c19.317,0,35.032,15.716,35.032,35.032S463.948,312.589,444.632,312.589z M444.632,296.421
	c10.401,0,18.863-8.463,18.863-18.863c0-10.401-8.463-18.863-18.863-18.863s-18.863,8.461-18.863,18.863
	S434.231,296.421,444.632,296.421z M247.916,276.48v2.156c0,4.465,3.618,8.084,8.084,8.084s8.084-3.62,8.084-8.084v-2.156
	c0-4.465-3.618-8.084-8.084-8.084S247.916,272.015,247.916,276.48z M59.284,276.48v2.156c0,4.465,3.618,8.084,8.084,8.084
	c4.466,0,8.084-3.62,8.084-8.084v-2.156c0-4.465-3.618-8.084-8.084-8.084C62.903,268.396,59.284,272.015,59.284,276.48z
	 M452.716,278.636v-2.156c0-4.465-3.618-8.084-8.084-8.084s-8.084,3.62-8.084,8.084v2.156c0,4.465,3.618,8.084,8.084,8.084
	S452.716,283.1,452.716,278.636z M67.368,242.526c19.317,0,35.032,15.716,35.032,35.032s-15.715,35.032-35.032,35.032
	s-35.032-15.716-35.032-35.032S48.051,242.526,67.368,242.526z M67.368,258.695c-10.401,0-18.863,8.463-18.863,18.863
	s8.463,18.863,18.863,18.863c10.401,0,18.863-8.463,18.863-18.863C86.232,267.157,77.769,258.695,67.368,258.695z"/>
<g>
</g>
<g>
</g>
<g>
</g>
<g>
</g>
<g>
</g>
<g>
</g>
<g>
</g>
<g>
</g>
<g>
</g>
<g>
</g>
<g>
</g>
<g>
</g>
<g>
</g>
<g>
</g>
<g>
</g>
</svg>
