<?xml version="1.0" encoding="UTF-8" standalone="no"?>
<!-- Created with Inkscape (http://www.inkscape.org/) -->

<svg
   xmlns:dc="http://purl.org/dc/elements/1.1/"
   xmlns:cc="http://creativecommons.org/ns#"
   xmlns:rdf="http://www.w3.org/1999/02/22-rdf-syntax-ns#"
   xmlns:svg="http://www.w3.org/2000/svg"
   xmlns="http://www.w3.org/2000/svg"
   xmlns:sodipodi="http://sodipodi.sourceforge.net/DTD/sodipodi-0.dtd"
   xmlns:inkscape="http://www.inkscape.org/namespaces/inkscape"
   width="208.96579mm"
   height="167.34312mm"
   viewBox="0 0 208.96579 167.34312"
   version="1.1"
   id="svg8"
   inkscape:version="0.92.4 (5da689c313, 2019-01-14)"
   sodipodi:docname="desk-avatar.svg">
  <defs
     id="defs2" />
  <sodipodi:namedview
     id="base"
     pagecolor="#ffffff"
     bordercolor="#666666"
     borderopacity="1.0"
     inkscape:pageopacity="0.0"
     inkscape:pageshadow="2"
     inkscape:zoom="0.98994949"
     inkscape:cx="255.25373"
     inkscape:cy="374.7644"
     inkscape:document-units="mm"
     inkscape:current-layer="XMLID_636_"
     showgrid="false"
     inkscape:window-width="2400"
     inkscape:window-height="1271"
     inkscape:window-x="1991"
     inkscape:window-y="-9"
     inkscape:window-maximized="1" />
  <metadata
     id="metadata5">
    <rdf:RDF>
      <cc:Work
         rdf:about="">
        <dc:format>image/svg+xml</dc:format>
        <dc:type
           rdf:resource="http://purl.org/dc/dcmitype/StillImage" />
        <dc:title></dc:title>
      </cc:Work>
    </rdf:RDF>
  </metadata>
  <g
     inkscape:label="Layer 1"
     inkscape:groupmode="layer"
     id="layer1"
     transform="translate(-0.6757495,-70.767626)">
    <g
       id="XMLID_2603_"
       transform="matrix(0.26458333,0,0,0.26458333,16.177382,38.766668)">
	
	
	
	
	
	
	
	
	
	<g
   id="XMLID_636_">
		
		
		
		
	<g
   id="g4953"
   transform="matrix(1.5425624,0,0,1.6173777,-58.588848,-74.670902)">
  <g
     id="XMLID_1212_">
		<path
   inkscape:connector-curvature="0"
   id="XMLID_1221_"
   style="fill:#5ddef5"
   d="m 295.889,294.045 v 12.523 l -52.211,11.453 c -22.481,4.932 -38.499,24.845 -38.499,47.86 V 462 h 236 v -96.091 c 0,-23.028 -16.036,-42.949 -38.532,-47.867 l -52.478,-11.474 v -12.611" />

		<polygon
   id="XMLID_2604_"
   style="fill:#ffffff"
   points="350.169,306.568 323.029,379.148 295.889,306.568 " />

		<path
   inkscape:connector-curvature="0"
   id="XMLID_1217_"
   style="fill:#afabb0"
   d="m 323.179,146.929 v 0 c -31.749,0 -57.487,25.738 -57.487,57.487 v 13.839 h 28.107 c 18.684,0 36.409,-8.273 48.41,-22.593 v 0 l 38.456,22.593 v -13.839 c 10e-4,-31.749 -25.737,-57.487 -57.486,-57.487 z" />

		<path
   inkscape:connector-curvature="0"
   id="XMLID_1216_"
   style="fill:#fed2a4"
   d="m 329.827,206.958 c -10.473,7.274 -23.014,11.297 -36.027,11.297 h -28.107 v 24.417 c 0,31.749 25.738,57.487 57.487,57.487 v 0 c 31.749,0 57.487,-25.738 57.487,-57.487 v -24.417 l -19.228,-11.297 -19.228,-11.297 z" />

	</g>
  <rect
     id="XMLID_2502_"
     x="10"
     y="462"
     style="fill:#ffbe52"
     width="492"
     height="40" />
  <rect
     id="XMLID_2533_"
     x="10"
     y="227"
     style="fill:#c7c4c8"
     width="216"
     height="160" />
  <path
     inkscape:connector-curvature="0"
     id="XMLID_1029_"
     style="fill:#5ddef5"
     d="M 138,426 H 98 v -99 c 0,-11.046 8.954,-20 20,-20 v 0 c 11.046,0 20,8.954 20,20 z" />
  <path
     inkscape:connector-curvature="0"
     id="XMLID_1028_"
     style="fill:#5ddef5"
     d="M 170,462 H 66 v -15 c 0,-11.598 9.402,-21 21,-21 h 62 c 11.598,0 21,9.402 21,21 z" />
  <rect
     id="XMLID_1222_"
     x="374"
     y="422"
     style="fill:#ffffff"
     width="128"
     height="40" />
  <rect
     id="XMLID_1227_"
     x="374"
     y="382"
     style="fill:#e8e7e9"
     width="128"
     height="40" />
  <rect
     id="XMLID_1229_"
     x="374"
     y="342"
     style="fill:#ffffff"
     width="128"
     height="40" />
  <path
     sodipodi:nodetypes="scccsccsssccscccssssscccssscccsssssssccsscsssssscccssccccccccccccccssscccscccscccccsccssscccccsccsccccsccccssccccccccccsscccsssccsssccssccsccccc"
     inkscape:connector-curvature="0"
     id="XMLID_1706_"
     d="m 502,332 h -61.547 c -8.46,-12.034 -21.172,-20.558 -35.671,-23.728 l -43.964,-9.613 c 17.991,-12.134 12.16897,-32.63414 20.25055,-54.47277 l 9.59645,-25.93223 -13.8874,-3.64282 3.78587,-9.43857 c 0,0 -20.17247,-68.24361 -57.38447,-68.24361 -37.212,0 -67.486,30.274 -67.486,67.486 v 2.542 11.297 24.417 c 0,23.256 11.825,43.803 29.778,55.943 l -43.936,9.639 c -1.877,0.412 -3.722,0.917 -5.535,1.502 V 227 c 0,-5.522 -4.478,-10 -10,-10 h -68 c -5.522,0 -10,4.478 -10,10 0,5.522 4.478,10 10,10 h 58 v 140 h -68 v -50 c 0,-16.542 -13.458,-30 -30,-30 -16.542,0 -30,13.458 -30,30 v 50 H 20 V 237 h 58 c 5.522,0 10,-4.478 10,-10 0,-5.522 -4.478,-10 -10,-10 H 10 c -5.522,0 -10,4.478 -10,10 v 160 c 0,5.522 4.478,10 10,10 h 78 v 19 h -1 c -17.094,0 -31,13.906 -31,31 v 5 H 10 c -5.522,0 -10,4.478 -10,10 v 40 c 0,5.522 4.478,10 10,10 h 492 c 5.522,0 10,-4.478 10,-10 v -40 -40 -40 -40 c 0,-5.522 -4.478,-10 -10,-10 z M 441.179,452 H 384 v -20 h 108 v 20 z M 492,412 H 384 v -20 h 108 z m 0,-40 H 384 v -20 h 50.874 c 0.03,0 0.06,0.006 0.089,0.006 0.031,0 0.063,-0.006 0.094,-0.006 H 492 Z M 275.692,204.416 c 0,-26.184 21.303,-47.486 47.486,-47.486 24.933,0 45.439,19.314 47.342,43.767 L 347.274,187.04 c -4.211,-2.475 -9.593,-1.544 -12.73,2.199 -10.126,12.085 -24.977,19.017 -40.744,19.017 h -18.107 v -1.297 -2.543 z m 0,23.839 H 293.8 c 18.825,0 36.7,-7.179 50.205,-19.94 l 26.66,15.663 v 18.694 c 0,26.184 -21.303,47.486 -47.486,47.486 -26.183,0 -47.486,-21.303 -47.486,-47.486 v -14.417 z m 63.152,80.048 -20.59371,12.1024 L 307.185,308.227 c 5.13,1.252 10.483,1.931 15.993,1.931 5.394,0 10.635,-0.654 15.666,-1.855 z M 226,397 c 5.522,0 10,-4.478 10,-10 v -55.623 c 3.085,-1.626 6.374,-2.832 9.82,-3.588 l 43.74,-9.596 24.103,64.457 c 1.461,3.907 5.194,6.497 9.366,6.497 4.172,0 7.905,-2.59 9.366,-6.498 l 24.104,-64.461 44.011,9.623 c 3.863,0.844 7.529,2.274 10.902,4.188 H 374 c -5.522,0 -10,4.478 -10,10 v 40 40 30 H 215.179 v -55 H 226 Z m -30.821,0 v 55 H 180 v -5 c 0,-17.094 -13.906,-31 -31,-31 h -1 V 397 Z M 108,327 c 0,-5.514 4.486,-10 10,-10 5.514,0 10,4.486 10,10 v 89 H 108 Z M 76,447 c 0,-6.065 4.935,-11 11,-11 h 11 40 11 c 6.065,0 11,4.935 11,11 v 5 H 76 Z m 416,45 H 20 v -20 h 472 z" />
  <path
     inkscape:connector-curvature="0"
     id="XMLID_1768_"
     d="m 110.93,219.93 c -1.86,1.86 -2.93,4.44 -2.93,7.07 0,2.63 1.069,5.21 2.93,7.069 1.86,1.86 4.44,2.931 7.07,2.931 2.63,0 5.21,-1.07 7.069,-2.931 C 126.93,232.21 128,229.63 128,227 c 0,-2.63 -1.07,-5.21 -2.931,-7.07 C 123.21,218.07 120.63,217 118,217 c -2.63,0 -5.21,1.069 -7.07,2.93 z" />
  <g
     inkscape:label="Layer 1"
     id="layer1-4"
     transform="matrix(3.7795276,0,0,3.7795276,43.706715,-936.88975)">
    <g
       id="g4666"
       transform="matrix(0.26458333,0,0,0.26458333,44.903308,193.73632)">
      <g
         id="g1137">
        <g
           transform="translate(-220.17646,-3.9135578)"
           id="g4890">
          <path
             transform="translate(4.669093e-6)"
             inkscape:connector-curvature="0"
             style="fill:#e95504;fill-opacity:1;stroke-width:0.62269545"
             d="m 388.85539,423.18272 h -5.32134 v 31.73783 h 5.32134 c 8.8177,0 15.96467,-7.10411 15.96467,-15.86892 0,-8.76481 -7.15259,-15.86891 -15.96467,-15.86891 z"
             id="path4518" />
          <path
             transform="translate(4.669093e-6)"
             inkscape:connector-curvature="0"
             style="fill:#db531c;fill-opacity:1;stroke-width:0.62269545"
             d="m 255.81487,439.05226 c 0,8.7648 7.14697,15.86891 15.96466,15.86891 h 5.32135 v -31.73784 h -5.32135 c -8.81769,-6.1e-4 -15.96466,7.10349 -15.96466,15.86893 z"
             id="path4520" />
          <ellipse
             transform="translate(4.669093e-6)"
             cx="362.26865"
             cy="433.76221"
             id="circle4558"
             rx="10.643317"
             ry="10.579485"
             style="stroke-width:0.62269545" />
          <path
             id="path4522"
             d="m 388.85539,423.18272 6.27944,-32.10847 c 2.05922,-12.18742 -6.21573,-23.72422 -18.47668,-25.77108 -1.2454,-0.20612 -2.50641,-0.30669 -3.76742,-0.30669 v 0 c -3.18219,-9.46883 -12.09607,-15.85836 -22.13792,-15.86892 h -63.00799 l -5.76827,5.09226 -10.19639,-15.67236 c -3.19055,-4.90403 -14.69803,38.28133 -0.0106,52.88625 0.006,0.006 0.006,0.0105 0.0106,0.0105 h 95.7886 z"
             style="fill:#000000;fill-opacity:1;stroke-width:0.62269545"
             inkscape:connector-curvature="0"
             sodipodi:nodetypes="ccccccccscscc" />
          <path
             id="path4536"
             d="m 362.24679,531.83336 v -29.30482 h -63.85865 v 29.30482 c 23.94668,10.3144 39.91197,10.3144 63.85865,0 z"
             style="fill:#ea865d;fill-opacity:1;stroke-width:0.62269545"
             inkscape:connector-curvature="0" />
          <path
             id="path4540"
             d="m 388.85539,423.18272 v 30.151 c -0.006,14.92216 -3.83174,29.5904 -11.12235,42.63518 v 0 c -9.56844,17.11243 -27.72035,27.72296 -47.41558,27.71799 v 0 c -19.69522,0.006 -37.84713,-10.60556 -47.41557,-27.71799 v 0 c -7.29061,-13.04416 -11.11674,-27.7124 -11.12236,-42.63518 v -61.88946 h 95.7886 z"
             style="fill:#c94a03;fill-opacity:1;stroke-width:0.62269545"
             inkscape:connector-curvature="0" />
          <path
             id="path4542"
             d="m 293.06617,391.44488 h -21.28664 v 61.88946 c 0.006,14.92216 3.83175,29.5904 11.12236,42.63518 5.32135,9.46883 13.4158,17.10685 23.2022,21.89961 -18.35927,-52.36847 -13.03792,-126.42425 -13.03792,-126.42425 z"
             style="fill:#e97a4d;fill-opacity:1;stroke-width:0.62269545"
             inkscape:connector-curvature="0" />
          <path
             id="path4544"
             d="m 261.88196,356.10999 c -3.16096,12.68967 0.59583,26.09391 9.8982,35.33489 h 85.14591 c -60.45412,0 -85.14654,-21.15897 -95.04411,-35.33489 z"
             style="fill:#ffffff;fill-opacity:1;stroke-width:0.62269545"
             inkscape:connector-curvature="0" />
          <path
             style="stroke-width:0.62269545"
             id="path4546"
             d="m 388.85539,460.2106 h -5.32134 v -10.57948 h 5.32134 c 5.86972,0 10.64332,-4.74497 10.64332,-10.57949 0,-5.83452 -4.7736,-10.57948 -10.64332,-10.57948 h -5.32134 v -10.57949 h 5.32134 c 11.73945,0 21.28664,9.48994 21.28664,21.15897 0,11.66904 -9.54719,21.15897 -21.28664,21.15897 z"
             inkscape:connector-curvature="0" />
          <path
             style="stroke-width:0.62269545"
             id="path4548"
             d="m 277.10151,460.2106 h -5.32135 c -11.73945,0 -21.28664,-9.48993 -21.28664,-21.15897 0,-11.66903 9.54719,-21.15897 21.28664,-21.15897 h 5.32135 v 10.57949 h -5.32135 c -5.86972,0 -10.64332,4.74496 -10.64332,10.57948 0,5.83452 4.7736,10.57949 10.64332,10.57949 h 5.32135 z"
             inkscape:connector-curvature="0" />
          <path
             style="stroke-width:0.62269545"
             id="path4550"
             d="m 335.63881,470.79009 h -15.96466 c -1.67073,0 -3.24091,-0.7779 -4.24646,-2.10522 -1.00556,-1.32795 -1.33034,-3.04142 -0.86753,-4.63881 l 10.64331,-37.02789 10.23361,2.90919 -8.71153,30.28324 h 8.90826 v 10.57949 z"
             inkscape:connector-curvature="0" />
          <path
             style="stroke-width:0.62269545"
             id="path4552"
             d="m 330.32808,528.97694 c -0.0106,0 -0.0212,0 -0.0318,0 -21.60578,0 -41.55084,-11.65847 -52.05051,-30.44217 -7.71095,-13.79039 -11.78753,-29.42153 -11.79252,-45.19484 V 391.4455 c 0,-2.91974 2.38399,-5.28943 5.32134,-5.28943 h 95.7886 c 1.77753,0 3.43765,0.88344 4.42759,2.35417 l 21.28664,31.73783 c 0.58022,0.8673 0.89376,1.88856 0.89376,2.93589 v 30.151 c -0.006,15.77393 -4.0872,31.40507 -11.79253,45.20043 -10.49405,18.77748 -30.43972,30.44155 -52.05051,30.44155 z m -0.0163,-10.57948 c 0.005,0 0.0106,0 0.0106,0 17.7528,0 34.1328,-9.57934 42.75376,-24.99878 6.83281,-12.22964 10.44658,-26.08336 10.45158,-40.06931 v -28.54865 l -18.812,-28.04578 h -87.61484 v 56.5994 c 0.006,13.98595 3.61877,27.83967 10.45157,40.06434 8.62096,15.42503 25.00096,24.99878 42.74815,24.99878 0.006,0 0.0113,0 0.0113,0 z"
             inkscape:connector-curvature="0" />
          <path
             style="stroke-width:0.62269545"
             id="path4554"
             d="m 325.9005,491.94906 h -6.22635 v -10.57949 h 6.22635 c 8.28556,-0.006 16.07646,-3.21091 21.94118,-9.03487 l 7.52483,7.48467 c -7.87646,7.81867 -18.33865,12.1241 -29.46601,12.12969 z"
             inkscape:connector-curvature="0" />
          <ellipse
             style="stroke-width:0.62269545"
             ry="10.579485"
             rx="10.643317"
             id="circle4556"
             cy="433.10297"
             cx="298.40936" />
          <path
             style="stroke-width:0.62269545"
             id="path4560"
             d="m 394.10242,429.34565 -10.49966,-1.74017 6.27943,-37.3979 c 0.76073,-4.50657 -0.2873,-9.03487 -2.9536,-12.74803 -2.66629,-3.71316 -6.62544,-6.17845 -11.15421,-6.93462 -0.94748,-0.15893 -2.02236,-0.27502 -2.87927,-0.23281 h -0.0106 c -2.28843,0 -4.3264,-1.45459 -5.04465,-3.61258 -2.46394,-7.32636 -9.33423,-12.25075 -17.09826,-12.2613 h -62.99676 c -1.77753,0 -3.08276,-0.37389 -5.76827,-0.19842 l -8.34704,2.63048 -4.16509,-4.60609 c 10.62086,4.18036 -3.3891,4.17309 -3.3891,12.74793 0,8.5798 3.3577,16.64122 9.45663,22.70358 l -7.51921,7.49026 c -16.74725,-16.65178 -18.71885,-59.02154 0,-60.37651 l 5.32135,-5.28943 c 27.07424,20.12772 0.69211,15.20586 2.2779,15.36976 1.58578,0.15334 5.02833,-15.88319 5.91148,-14.56579 l 9.06815,13.51536 h 60.16056 c 11.11675,0.0106 21.07366,6.35291 25.80978,16.10173 0.32977,0.0422 0.64893,0.09 0.97933,0.14279 7.33871,1.22178 13.75118,5.21059 18.06697,11.23011 4.31578,6.01952 6.01337,13.34588 4.77859,20.63499 z"
             inkscape:connector-curvature="0"
             sodipodi:nodetypes="cccsccsccscccsccccccccccscc" />
          <ellipse
             style="stroke-width:0.62269545"
             ry="10.579485"
             rx="10.643317"
             id="circle4556-8"
             cy="433.10297"
             cx="355.43713" />
        </g>
      </g>
      <g
         id="g4582" />
      <g
         id="g4584" />
      <g
         id="g4586" />
      <g
         id="g4588" />
      <g
         id="g4590" />
      <g
         id="g4592" />
      <g
         id="g4594" />
      <g
         id="g4596" />
      <g
         id="g4598" />
      <g
         id="g4600" />
      <g
         id="g4602" />
      <g
         id="g4604" />
      <g
         id="g4606" />
      <g
         id="g4608" />
      <g
         id="g4610" />
    </g>
  </g>
</g>
</g>

</g>
  </g>
</svg>
