<?xml version="1.0" encoding="iso-8859-1"?>
<!-- Generator: Adobe Illustrator 19.0.0, SVG Export Plug-In . SVG Version: 6.00 Build 0)  -->
<svg version="1.1" id="Capa_1" xmlns="http://www.w3.org/2000/svg" xmlns:xlink="http://www.w3.org/1999/xlink" x="0px" y="0px"
	 viewBox="0 0 490.667 490.667" style="enable-background:new 0 0 490.667 490.667;" xml:space="preserve">
<path style="fill:#B0BEC5;" d="M96,106.667h298.667c5.891,0,10.667,4.776,10.667,10.667v341.333c0,5.891-4.776,10.667-10.667,10.667
	H96c-5.891,0-10.667-4.776-10.667-10.667V117.333C85.333,111.442,90.109,106.667,96,106.667z"/>
<rect x="234.667" y="106.667" style="fill:#CFD8DC;" width="21.333" height="362.667"/>
<path style="fill:#455A64;" d="M480,0H10.667C4.776,0,0,4.776,0,10.667V480c0,5.891,4.776,10.667,10.667,10.667H96
	c5.891,0,10.667-4.776,10.667-10.667V128H384v352c0,5.891,4.776,10.667,10.667,10.667H480c5.891,0,10.667-4.776,10.667-10.667
	V10.667C490.667,4.776,485.891,0,480,0z"/>
<g>
	<circle style="fill:#FFC107;" cx="437.333" cy="224" r="10.667"/>
	<circle style="fill:#FFC107;" cx="437.333" cy="266.667" r="10.667"/>
</g>
<g>
	<path style="fill:#FAFAFA;" d="M202.667,85.333c-2.831,0.005-5.548-1.115-7.552-3.115l-13.781-13.803l-13.781,13.781
		c-4.237,4.093-10.99,3.975-15.083-0.262c-3.992-4.134-3.992-10.687,0-14.82l21.333-21.333c4.165-4.164,10.917-4.164,15.083,0
		l21.333,21.333c4.171,4.16,4.179,10.914,0.019,15.085C208.232,84.211,205.507,85.338,202.667,85.333z"/>
	<path style="fill:#FAFAFA;" d="M309.333,85.333c-2.831,0.005-5.548-1.115-7.552-3.115l-21.333-21.333
		c-4.093-4.237-3.975-10.99,0.262-15.083c4.134-3.992,10.687-3.992,14.82,0l13.803,13.781l13.781-13.781
		c4.093-4.237,10.845-4.354,15.083-0.262s4.354,10.845,0.262,15.083c-0.086,0.089-0.173,0.176-0.262,0.262l-21.333,21.333
		C314.865,84.213,312.157,85.333,309.333,85.333z"/>
</g>
<path d="M480,490.667h-85.333c-5.891,0-10.667-4.776-10.667-10.667v-10.667H106.667V480c0,5.891-4.776,10.667-10.667,10.667H10.667
	C4.776,490.667,0,485.891,0,480V10.667C0,4.776,4.776,0,10.667,0H480c5.891,0,10.667,4.776,10.667,10.667V480
	C490.667,485.891,485.891,490.667,480,490.667z M405.333,469.333h64v-448h-448v448h64v-10.667C85.333,452.776,90.109,448,96,448
	h298.667c5.891,0,10.667,4.776,10.667,10.667V469.333z"/>
<path d="M394.667,469.333H96c-5.891,0-10.667-4.776-10.667-10.667V117.333c0-5.891,4.776-10.667,10.667-10.667h298.667
	c5.891,0,10.667,4.776,10.667,10.667v341.333C405.333,464.558,400.558,469.333,394.667,469.333z M106.667,448H384V128H106.667V448z"
	/>
<path d="M245.333,469.333c-5.891,0-10.667-4.776-10.667-10.667V117.333c0-5.891,4.776-10.667,10.667-10.667
	c5.891,0,10.667,4.776,10.667,10.667v341.333C256,464.558,251.224,469.333,245.333,469.333z"/>
<g>
</g>
<g>
</g>
<g>
</g>
<g>
</g>
<g>
</g>
<g>
</g>
<g>
</g>
<g>
</g>
<g>
</g>
<g>
</g>
<g>
</g>
<g>
</g>
<g>
</g>
<g>
</g>
<g>
</g>
</svg>
