<?xml version="1.0" encoding="UTF-8" standalone="no"?>
<!-- Created with Inkscape (http://www.inkscape.org/) -->

<svg
   xmlns:dc="http://purl.org/dc/elements/1.1/"
   xmlns:cc="http://creativecommons.org/ns#"
   xmlns:rdf="http://www.w3.org/1999/02/22-rdf-syntax-ns#"
   xmlns:svg="http://www.w3.org/2000/svg"
   xmlns="http://www.w3.org/2000/svg"
   xmlns:sodipodi="http://sodipodi.sourceforge.net/DTD/sodipodi-0.dtd"
   xmlns:inkscape="http://www.inkscape.org/namespaces/inkscape"
   width="180.62224mm"
   height="180.62224mm"
   viewBox="0 0 180.62224 180.62224"
   version="1.1"
   id="svg8"
   inkscape:version="0.92.4 (5da689c313, 2019-01-14)"
   sodipodi:docname="kiosk.svg">
  <defs
     id="defs2" />
  <sodipodi:namedview
     id="base"
     pagecolor="#ffffff"
     bordercolor="#666666"
     borderopacity="1.0"
     inkscape:pageopacity="0.0"
     inkscape:pageshadow="2"
     inkscape:zoom="0.7"
     inkscape:cx="523.79957"
     inkscape:cy="320.32948"
     inkscape:document-units="mm"
     inkscape:current-layer="layer1"
     showgrid="false"
     inkscape:window-width="1600"
     inkscape:window-height="821"
     inkscape:window-x="-9"
     inkscape:window-y="-9"
     inkscape:window-maximized="1" />
  <metadata
     id="metadata5">
    <rdf:RDF>
      <cc:Work
         rdf:about="">
        <dc:format>image/svg+xml</dc:format>
        <dc:type
           rdf:resource="http://purl.org/dc/dcmitype/StillImage" />
        <dc:title></dc:title>
      </cc:Work>
    </rdf:RDF>
  </metadata>
  <g
     inkscape:label="Layer 1"
     inkscape:groupmode="layer"
     id="layer1"
     transform="translate(99.599348,-250.63045)">
    <g
       id="g949"
       transform="matrix(0.3527778,0,0,0.3527778,-99.599348,250.63045)">
      <path
         id="path815"
         d="M 93.867188,8.535156 H 418.13281 V 273.06641 H 93.867188 Z m 0,0"
         inkscape:connector-curvature="0"
         style="fill:#a4c2f7" />
      <path
         id="path817"
         d="M 68.265625,8.535156 H 392.53516 V 273.06641 H 68.265625 Z m 0,0"
         inkscape:connector-curvature="0"
         style="fill:#e3e7f2" />
      <path
         id="path819"
         d="M 486.39844,82.261719 V 136.53516 H 452.26562 V 93.867188 l 1.87891,-0.683594 z m 0,0"
         inkscape:connector-curvature="0"
         style="fill:#d4e1f4" />
      <path
         id="path821"
         d="M 59.734375,93.867188 V 238.93359 H 25.601562 V 82.261719 l 32.253907,10.921875 z m 0,0"
         inkscape:connector-curvature="0"
         style="fill:#d4e1f4" />
      <path
         id="path823"
         d="m 85.332031,8.535156 v 51.199219 c 0,18.851563 -15.28125,34.132813 -34.132812,34.132813 -18.851563,0 -34.132813,-15.28125 -34.132813,-34.132813 V 17.066406 c 0,-4.710937 3.820313,-8.53125 8.535156,-8.53125 z m 0,0"
         inkscape:connector-curvature="0"
         style="fill:#a4c2f7" />
      <path
         id="path825"
         d="m 153.60156,8.535156 v 51.199219 c 0,18.851563 -15.28515,34.132813 -34.13672,34.132813 -18.84765,0 -34.132809,-15.28125 -34.132809,-34.132813 V 8.535156 Z m 0,0"
         inkscape:connector-curvature="0"
         style="fill:#e3e7f2" />
      <path
         id="path827"
         d="m 221.86719,8.535156 v 51.199219 c 0,18.851563 -15.28125,34.132813 -34.13282,34.132813 -18.85156,0 -34.13281,-15.28125 -34.13281,-34.132813 V 8.535156 Z m 0,0"
         inkscape:connector-curvature="0"
         style="fill:#a4c2f7" />
      <path
         id="path829"
         d="m 290.13281,8.535156 v 51.199219 c 0,18.851563 -15.28125,34.132813 -34.13281,34.132813 -18.85156,0 -34.13281,-15.28125 -34.13281,-34.132813 V 8.535156 Z m 0,0"
         inkscape:connector-curvature="0"
         style="fill:#e3e7f2" />
      <path
         id="path831"
         d="m 358.39844,8.535156 v 51.199219 c 0,18.851563 -15.28125,34.132813 -34.13282,34.132813 -18.85156,0 -34.13281,-15.28125 -34.13281,-34.132813 V 8.535156 Z m 0,0"
         inkscape:connector-curvature="0"
         style="fill:#a4c2f7" />
      <path
         id="path833"
         d="m 426.66797,8.535156 v 51.199219 c 0,18.851563 -15.28516,34.132813 -34.13281,34.132813 -18.85157,0 -34.13672,-15.28125 -34.13672,-34.132813 V 8.535156 Z m 0,0"
         inkscape:connector-curvature="0"
         style="fill:#e3e7f2" />
      <path
         id="path835"
         d="m 494.93359,17.066406 v 42.667969 c 0,18.851563 -15.28125,34.132813 -34.13281,34.132813 -18.85156,0 -34.13281,-15.28125 -34.13281,-34.132813 V 8.535156 h 59.73047 c 4.71484,0 8.53515,3.820313 8.53515,8.53125 z m 0,0"
         inkscape:connector-curvature="0"
         style="fill:#a4c2f7" />
      <path
         id="path837"
         d="M 452.26562,341.33203 H 153.60156 v -68.26562 h 264.53125 z m 0,0"
         inkscape:connector-curvature="0"
         style="fill:#a4c2f7" />
      <path
         id="path839"
         d="M 426.66797,341.33203 H 128 v -68.26562 h 264.53516 z m 0,0"
         inkscape:connector-curvature="0"
         style="fill:#e3e7f2" />
      <path
         id="path841"
         d="M 93.867188,82.261719 V 238.93359 H 59.734375 V 93.867188 l -1.878906,-0.683594 c 15.976562,-3.148438 27.492187,-17.164063 27.476562,-33.449219 0.01172,8.296875 3.046875,16.304687 8.535157,22.527344 z m 0,0"
         inkscape:connector-curvature="0"
         style="fill:#a4c2f7" />
      <path
         id="path843"
         d="m 460.80078,247.46484 h -8.53516 v 93.86719 L 418.13281,273.06641 V 82.261719 c 5.48828,-6.222657 8.52344,-14.230469 8.53516,-22.527344 -0.0156,16.285156 11.5,30.300781 27.47656,33.449219 l -1.8789,0.683594 v 42.667972 h 8.53515 c -4.71484,0 -8.53516,3.82031 -8.53516,8.53125 v 93.86718 c 0,4.71094 3.82032,8.53125 8.53516,8.53125 z m 0,0"
         inkscape:connector-curvature="0"
         style="fill:#a4c2f7" />
      <path
         id="path845"
         d="m 486.39844,247.46484 v 213.33594 c 0,4.71094 -3.82032,8.53125 -8.53125,8.53125 H 452.26562 V 247.46484 Z m 0,0"
         inkscape:connector-curvature="0"
         style="fill:#d4e1f4" />
      <path
         id="path847"
         d="m 460.80078,136.53516 h 34.13281 c 4.71094,0 8.53125,3.82031 8.53125,8.53125 v 93.86718 c 0,4.71094 -3.82031,8.53125 -8.53125,8.53125 h -34.13281 c -4.71484,0 -8.53516,-3.82031 -8.53516,-8.53125 v -93.86718 c 0,-4.71094 3.82032,-8.53125 8.53516,-8.53125 z m 0,0"
         inkscape:connector-curvature="0"
         style="fill:#d4e1f4" />
      <path
         id="path853"
         d="m 307.19922,204.80078 h 59.73437 c 9.42578,0 17.06641,7.64063 17.06641,17.06641 0,9.42578 -7.64063,17.0664 -17.06641,17.0664 h -59.73437 c -9.42578,0 -17.06641,-7.64062 -17.06641,-17.0664 0,-9.42578 7.64063,-17.06641 17.06641,-17.06641 z m 0,0"
         inkscape:connector-curvature="0"
         style="fill:#e6e7e8" />
      <path
         id="path855"
         d="M 136.53516,238.93359 H 25.601562 C 16.1875,238.96094 8.5625,246.58594 8.535156,256 V 486.39844 C 8.5625,495.8125 16.1875,503.4375 25.601562,503.46484 H 136.53516 c 9.41406,-0.0273 17.03515,-7.65234 17.0664,-17.0664 V 256 c -0.0312,-9.41406 -7.65234,-17.03906 -17.0664,-17.06641 z m 0,0"
         inkscape:connector-curvature="0"
         style="fill:#a4c2f7" />
      <path
         id="path857"
         d="M 113.94531,238.93359 H 22.585938 C 14.046875,239.86719 7.8125,247.44141 8.535156,256 v 230.39844 c -0.722656,8.5625 5.511719,16.13672 14.050782,17.0664 h 91.359372 c 8.53907,-0.92968 14.77735,-8.5039 14.05469,-17.0664 V 256 c 0.72266,-8.55859 -5.51562,-16.13281 -14.05469,-17.06641 z m 0,0"
         inkscape:connector-curvature="0"
         style="fill:#e3e7f2" />
      <path
         id="path859"
         d="m 51.199219,273.06641 h 59.734371 c 4.71094,0 8.53125,3.82031 8.53125,8.53515 v 25.59766 c 0,4.71484 -3.82031,8.53515 -8.53125,8.53515 H 51.199219 c -4.710938,0 -8.53125,-3.82031 -8.53125,-8.53515 v -25.59766 c 0,-4.71484 3.820312,-8.53515 8.53125,-8.53515 z m 0,0"
         inkscape:connector-curvature="0"
         style="fill:#d4e1f4" />
      <path
         id="path861"
         d="m 51.199219,349.86719 h 59.734371 c 4.71094,0 8.53125,3.82031 8.53125,8.53125 V 384 c 0,4.71094 -3.82031,8.53516 -8.53125,8.53516 H 51.199219 c -4.710938,0 -8.53125,-3.82422 -8.53125,-8.53516 v -25.60156 c 0,-4.71094 3.820312,-8.53125 8.53125,-8.53125 z m 0,0"
         inkscape:connector-curvature="0"
         style="fill:#d4e1f4" />
      <path
         id="path863"
         d="m 51.199219,426.66797 h 59.734371 c 4.71094,0 8.53125,3.82031 8.53125,8.53125 v 25.60156 c 0,4.71094 -3.82031,8.53125 -8.53125,8.53125 H 51.199219 c -4.710938,0 -8.53125,-3.82031 -8.53125,-8.53125 v -25.60156 c 0,-4.71094 3.820312,-8.53125 8.53125,-8.53125 z m 0,0"
         inkscape:connector-curvature="0"
         style="fill:#d4e1f4" />
      <path
         id="path865"
         d="m 51.199219,273.06641 h 34.132812 c 4.714844,0 8.535157,3.82031 8.535157,8.53515 v 25.59766 c 0,4.71484 -3.820313,8.53515 -8.535157,8.53515 H 51.199219 c -4.710938,0 -8.53125,-3.82031 -8.53125,-8.53515 v -25.59766 c 0,-4.71484 3.820312,-8.53515 8.53125,-8.53515 z m 0,0"
         inkscape:connector-curvature="0"
         style="fill:#f5f5f5" />
      <path
         id="path867"
         d="M 93.867188,358.39844 V 384 c 0,4.69141 -2.558594,8.53516 -5.691407,8.53516 H 48.359375 c -3.132813,0 -5.691406,-3.84375 -5.691406,-8.53516 v -25.60156 c 0,-4.69141 2.558593,-8.53125 5.691406,-8.53125 h 39.816406 c 3.132813,0 5.691407,3.83984 5.691407,8.53125 z m 0,0"
         inkscape:connector-curvature="0"
         style="fill:#f5f5f5" />
      <path
         id="path869"
         d="m 51.199219,426.66797 h 34.132812 c 4.714844,0 8.535157,3.82031 8.535157,8.53125 v 25.60156 c 0,4.71094 -3.820313,8.53125 -8.535157,8.53125 H 51.199219 c -4.710938,0 -8.53125,-3.82031 -8.53125,-8.53125 v -25.60156 c 0,-4.71094 3.820312,-8.53125 8.53125,-8.53125 z m 0,0"
         inkscape:connector-curvature="0"
         style="fill:#f5f5f5" />
      <path
         id="path871"
         d="m 153.60156,341.33203 h 298.66406 v 93.86719 H 153.60156 Z m 0,0"
         inkscape:connector-curvature="0"
         style="fill:#d4e1f4" />
      <path
         id="path873"
         d="m 418.13281,384 v 51.19922 H 341.33203 V 384 c 0,-4.71094 3.82031,-8.53516 8.53516,-8.53516 h 59.73437 c 4.71094,0 8.53125,3.82422 8.53125,8.53516 z m 0,0"
         inkscape:connector-curvature="0"
         style="fill:#d4e1f4" />
      <path
         id="path875"
         d="m 307.19922,401.06641 v 34.13281 h -42.66406 v -34.13281 c 0,-4.71094 3.82031,-8.53125 8.53125,-8.53125 h 25.60156 c 4.71094,0 8.53125,3.82031 8.53125,8.53125 z m 0,0"
         inkscape:connector-curvature="0"
         style="fill:#a4c2f7" />
      <path
         id="path877"
         d="m 153.60156,435.19922 h 298.66406 v 34.13281 H 153.60156 Z m 0,0"
         inkscape:connector-curvature="0"
         style="fill:#a4c2f7" />
      <path
         id="path879"
         d="m 162.13281,435.19922 h 264.53516 v 34.13281 H 162.13281 Z m 0,0"
         inkscape:connector-curvature="0"
         style="fill:#e3e7f2" />
      <path
         id="path881"
         d="m 230.39844,384 v 51.19922 H 187.73437 V 384 c 0,-4.71094 3.82032,-8.53516 8.53125,-8.53516 h 25.60157 c 4.71093,0 8.53125,3.82422 8.53125,8.53516 z m 0,0"
         inkscape:connector-curvature="0"
         style="fill:#e3e7f2" />
      <path
         id="path883"
         d="M 22.585938,503.46484 H 48.1875 c -8.539062,-0.92968 -14.777344,-8.5039 -14.054688,-17.0664 V 256 c -0.722656,-8.55859 5.515626,-16.13281 14.054688,-17.06641 h 3.011719 V 82.261719 C 45.710938,76.039062 42.679688,68.03125 42.667969,59.734375 V 17.066406 c 0,-4.710937 3.820312,-8.53125 8.53125,-8.53125 H 25.601562 c -4.714843,0 -8.535156,3.820313 -8.535156,8.53125 v 42.667969 c 0.01172,8.296875 3.046875,16.304687 8.535156,22.527344 V 238.93359 H 22.585938 C 14.046875,239.86719 7.8125,247.44141 8.535156,256 v 230.39844 c -0.722656,8.5625 5.511719,16.13672 14.050782,17.0664 z m 0,0"
         inkscape:connector-curvature="0"
         style="fill:#ffffff" />
      <path
         id="path885"
         d="M 34.132812,82.261719 V 238.93359 H 17.066406 V 82.261719 Z m 0,0"
         inkscape:connector-curvature="0"
         style="fill:#ffffff" />
      <g
         id="g897"
         style="fill:#428dff">
        <path
           id="path889"
           d="M 494.93359,128 V 85.070312 c 5.51172,-7.300781 8.50391,-16.191406 8.53125,-25.335937 V 17.066406 C 503.46484,7.640625 495.82422,0 486.39844,0 H 25.601562 C 16.175781,0 8.535156,7.640625 8.535156,17.066406 v 42.667969 c 0.027344,9.144531 3.019532,18.035156 8.53125,25.335937 v 31.324218 c 0,4.71485 3.820313,8.53516 8.535156,8.53516 4.710938,0 8.53125,-3.82031 8.53125,-8.53516 V 98.78125 c 5.375,2.38281 11.1875,3.61328 17.066407,3.61719 v 128 H 34.132812 v -45.73828 c 0,-4.71094 -3.820312,-8.53125 -8.53125,-8.53125 -4.714843,0 -8.535156,3.82031 -8.535156,8.53125 v 47.30859 C 6.875,235.57422 0.0429688,245.19141 0,256 V 486.39844 C 0,500.53906 11.460938,512 25.601562,512 H 136.53516 c 14.13672,0 25.59765,-11.46094 25.59765,-25.60156 v -8.53125 h 315.73438 c 9.42578,0 17.0664,-7.64063 17.0664,-17.06641 V 256 C 504.35938,256 512,248.35937 512,238.93359 V 145.06641 C 512,135.64062 504.35938,128 494.93359,128 Z m -34.13281,0 v -25.60156 c 5.87891,-0.004 11.69141,-1.23438 17.06641,-3.61719 V 128 Z M 409.60156,426.66797 H 349.86719 V 384 h 59.73437 z m 8.53125,-59.73438 h -76.80078 c -4.71094,0 -8.53125,3.82032 -8.53125,8.53125 v 51.20313 h -17.06641 v -34.13281 c 0,-4.71485 -3.82031,-8.53516 -8.53515,-8.53516 H 264.53516 C 259.82031,384 256,387.82031 256,392.53516 v 34.13281 h -17.06641 v -51.20313 c 0,-4.71093 -3.82031,-8.53125 -8.53515,-8.53125 h -42.66407 c -4.71484,0 -8.53515,3.82032 -8.53515,8.53125 v 51.20313 h -17.06641 v -76.80078 h 281.60156 v 76.80078 h -17.0664 v -51.20313 c 0,-4.71093 -3.82031,-8.53125 -8.53516,-8.53125 z m -119.46484,59.73438 h -25.60156 v -25.60156 h 25.60156 z m -76.80078,0 H 196.26563 V 384 h 25.60156 z M 102.39844,98.789062 c 18.17187,8.039068 39.48437,2.324218 51.20312,-13.71875 7.95703,10.890626 20.64063,17.332028 34.13282,17.332028 13.49218,0 26.17187,-6.441402 34.13281,-17.332028 7.96094,10.890626 20.64062,17.332028 34.13281,17.332028 13.49219,0 26.17188,-6.441402 34.13281,-17.332028 7.96094,10.890626 20.64063,17.332028 34.13282,17.332028 13.49218,0 26.17578,-6.441402 34.13281,-17.332028 11.71484,16.050778 33.03515,21.761718 51.20312,13.710938 v 165.75391 h -18.63672 l -107.56026,1.33929 H 162.40067 L 162.13281,256 c -0.38334,-14.13152 -11.46093,-25.60156 -25.59765,-25.60156 h -34.13672 z m 341.33594,0 v 37.746098 c 0.0195,1.23046 0.3125,2.44531 0.85156,3.55468 -0.53125,1.60938 -0.82031,3.28516 -0.85156,4.97657 v 93.86718 c 0.0312,1.69141 0.32031,3.36719 0.85156,4.97657 -0.53906,1.10937 -0.83203,2.32421 -0.85156,3.55468 V 305.1875 L 426.66797,271.05469 V 85.070312 c 4.40234,5.96875 10.28516,10.695313 17.06641,13.710938 z M 162.13281,281.60156 h 121.03907 c 67.27817,0.0727 67.54581,0.12525 116.32421,0 h 13.36329 l 25.60156,51.19922 H 162.13281 Z M 486.39844,59.734375 c 0,14.136719 -11.46094,25.597656 -25.59766,25.597656 -14.14062,0 -25.60156,-11.460937 -25.60156,-25.597656 V 17.066406 h 51.19922 z m -68.26563,0 c 0,14.136719 -11.46093,25.597656 -25.59765,25.597656 -14.14063,0 -25.60157,-11.460937 -25.60157,-25.597656 V 17.066406 h 51.19922 z m -68.26562,0 c 0,14.136719 -11.46094,25.597656 -25.60156,25.597656 -14.13672,0 -25.59766,-11.460937 -25.59766,-25.597656 V 17.066406 h 51.19922 z m -68.26563,0 c 0,14.136719 -11.46484,25.597656 -25.60156,25.597656 -14.13672,0 -25.60156,-11.460937 -25.60156,-25.597656 V 17.066406 h 51.20312 z M 213.33203,42.667969 v 17.066406 c 0,14.136719 -11.46094,25.597656 -25.59765,25.597656 -14.14063,0 -25.60157,-11.460937 -25.60157,-25.597656 V 17.066406 h 51.19922 z m -68.26562,0 v 17.066406 c 0,14.136719 -11.46094,25.597656 -25.60157,25.597656 -14.13671,0 -25.597652,-11.460937 -25.597652,-25.597656 V 17.066406 H 145.06641 Z M 25.601562,59.734375 V 17.066406 h 51.199219 v 42.667969 c 0,14.136719 -11.460937,25.597656 -25.601562,25.597656 -14.136719,0 -25.597657,-11.460937 -25.597657,-25.597656 z M 68.265625,98.78125 c 6.78125,-3.015625 12.664063,-7.742188 17.066406,-13.710938 V 230.39844 H 68.265625 Z m 76.800785,387.61719 c 0,4.71484 -3.82032,8.53515 -8.53125,8.53515 H 25.601562 c -4.714843,0 -8.535156,-3.82031 -8.535156,-8.53515 V 256 c 0,-4.71094 3.820313,-8.53516 8.535156,-8.53516 H 136.53516 c 4.71093,0 8.53125,3.82422 8.53125,8.53516 z m 17.0664,-42.66407 h 281.60157 v 17.06641 H 162.13281 Z m 315.73438,17.06641 H 460.80078 V 256 h 17.06641 z M 460.80078,238.93359 v -93.86718 h 34.13281 v 93.86718 z"
           inkscape:connector-curvature="0"
           sodipodi:nodetypes="cccssssccsssccccsssccsssscsscsscccccccccccsssccssssccssssccccccssccccccccccccscscsccccccsscccccccccccccccccccccsssccssssccssssccssssccscsssccccssscccsccssscccccsssssssssccccccccccccccc" />
        <path
           id="path887"
           d="m 25.601562,159.0625 c 2.257813,-0.0352 4.421876,-0.91797 6.058594,-2.47656 3.296875,-3.36328 3.296875,-8.75 0,-12.11719 l -1.28125,-1.02344 c -0.476562,-0.32422 -0.992187,-0.58203 -1.535156,-0.76953 -0.484375,-0.24609 -1.003906,-0.41797 -1.535156,-0.51172 -0.566406,-0.0937 -1.136719,-0.15234 -1.707032,-0.16797 -2.261718,0.0312 -4.425781,0.91407 -6.058593,2.47266 -0.773438,0.81641 -1.382813,1.77344 -1.792969,2.81641 -1.289062,3.18359 -0.585938,6.82421 1.792969,9.30078 0.8125,0.77343 1.769531,1.3789 2.8125,1.79297 1.027343,0.4375 2.128906,0.66796 3.246093,0.68359 z m 0,0"
           inkscape:connector-curvature="0" />
        <path
           id="path891"
           d="M 110.93359,264.53516 H 51.199219 c -9.425781,0 -17.066407,7.64062 -17.066407,17.0664 v 25.59766 c 0,9.42578 7.640626,17.0664 17.066407,17.0664 h 59.734371 c 9.42579,0 17.06641,-7.64062 17.06641,-17.0664 v -25.59766 c 0,-9.42578 -7.64062,-17.0664 -17.06641,-17.0664 z m -59.734371,42.66406 v -25.59766 h 59.734371 v 25.59766 z m 0,0"
           inkscape:connector-curvature="0" />
        <path
           id="path893"
           d="M 110.93359,341.33203 H 51.199219 c -9.425781,0 -17.066407,7.64063 -17.066407,17.06641 V 384 c 0,9.42578 7.640626,17.06641 17.066407,17.06641 H 110.93359 C 120.35938,401.06641 128,393.42578 128,384 v -25.60156 c 0,-9.42578 -7.64062,-17.06641 -17.06641,-17.06641 z m 0,42.66797 H 51.199219 v -25.60156 h 59.734371 z m 0,0"
           inkscape:connector-curvature="0" />
        <path
           id="path895"
           d="M 110.93359,418.13281 H 51.199219 c -9.425781,0 -17.066407,7.64063 -17.066407,17.06641 v 25.60156 c 0,9.42578 7.640626,17.06641 17.066407,17.06641 h 59.734371 c 9.42579,0 17.06641,-7.64063 17.06641,-17.06641 v -25.60156 c 0,-9.42578 -7.64062,-17.06641 -17.06641,-17.06641 z m -59.734371,42.66797 v -25.60156 h 59.734371 v 25.60156 z m 0,0"
           inkscape:connector-curvature="0" />
      </g>
    </g>
  </g>
  <g
     inkscape:groupmode="layer"
     id="layer2"
     inkscape:label="Layer 2"
     transform="translate(99.599348,-250.63045)">
    <g
       id="g1027"
       transform="matrix(0.12341665,0,0,0.09898797,-35.084428,289.65293)"
       style="fill:#428dff;fill-opacity:1">
      <g
         id="g967"
         style="fill:#428dff;fill-opacity:1">
</g>
      <g
         id="g969"
         style="fill:#428dff;fill-opacity:1">
</g>
      <g
         id="g971"
         style="fill:#428dff;fill-opacity:1">
</g>
      <g
         id="g973"
         style="fill:#428dff;fill-opacity:1">
</g>
      <g
         id="g975"
         style="fill:#428dff;fill-opacity:1">
</g>
      <g
         id="g977"
         style="fill:#428dff;fill-opacity:1">
</g>
      <g
         id="g979"
         style="fill:#428dff;fill-opacity:1">
</g>
      <g
         id="g981"
         style="fill:#428dff;fill-opacity:1">
</g>
      <g
         id="g983"
         style="fill:#428dff;fill-opacity:1">
</g>
      <g
         id="g985"
         style="fill:#428dff;fill-opacity:1">
</g>
      <g
         id="g987"
         style="fill:#428dff;fill-opacity:1">
</g>
      <g
         id="g989"
         style="fill:#428dff;fill-opacity:1">
</g>
      <g
         id="g991"
         style="fill:#428dff;fill-opacity:1">
</g>
      <g
         id="g993"
         style="fill:#428dff;fill-opacity:1">
</g>
      <g
         id="g995"
         style="fill:#428dff;fill-opacity:1">
</g>
    </g>
  </g>
</svg>
