<?xml version="1.0" encoding="UTF-8" standalone="no"?>
<!-- Generator: Adobe Illustrator 19.0.0, SVG Export Plug-In . SVG Version: 6.00 Build 0)  -->

<svg
   xmlns:dc="http://purl.org/dc/elements/1.1/"
   xmlns:cc="http://creativecommons.org/ns#"
   xmlns:rdf="http://www.w3.org/1999/02/22-rdf-syntax-ns#"
   xmlns:svg="http://www.w3.org/2000/svg"
   xmlns="http://www.w3.org/2000/svg"
   xmlns:sodipodi="http://sodipodi.sourceforge.net/DTD/sodipodi-0.dtd"
   xmlns:inkscape="http://www.inkscape.org/namespaces/inkscape"
   version="1.1"
   id="Capa_1"
   x="0px"
   y="0px"
   viewBox="0 0 512 415.58026"
   xml:space="preserve"
   sodipodi:docname="mall.svg"
   width="512"
   height="415.58026"
   inkscape:version="0.92.4 (5da689c313, 2019-01-14)"><metadata
   id="metadata97"><rdf:RDF><cc:Work
       rdf:about=""><dc:format>image/svg+xml</dc:format><dc:type
         rdf:resource="http://purl.org/dc/dcmitype/StillImage" /></cc:Work></rdf:RDF></metadata><defs
   id="defs95" /><sodipodi:namedview
   pagecolor="#ffffff"
   bordercolor="#666666"
   borderopacity="1"
   objecttolerance="10"
   gridtolerance="10"
   guidetolerance="10"
   inkscape:pageopacity="0"
   inkscape:pageshadow="2"
   inkscape:window-width="1600"
   inkscape:window-height="821"
   id="namedview93"
   showgrid="false"
   inkscape:zoom="0.921875"
   inkscape:cx="13.18768"
   inkscape:cy="285.78348"
   inkscape:window-x="-9"
   inkscape:window-y="-9"
   inkscape:window-maximized="1"
   inkscape:current-layer="Capa_1" />
<path
   style="fill:#c2c7d0"
   d="m 491.878,408.0785 c 6.919,0 12.582,-5.767 12.582,-12.817 v -2.817 c 0,-7.049 -5.661,-12.817 -12.582,-12.817"
   id="path2"
   inkscape:connector-curvature="0" />
<path
   style="fill:#abb0b7"
   d="m 491.878,408.0785 c 6.919,0 12.582,-5.767 12.582,-12.817 v -2.817 c 0,-2.049 -0.49,-3.982 -1.338,-5.704 -2.07,4.203 -6.334,7.112 -11.244,7.112"
   id="path4"
   inkscape:connector-curvature="0" />
<path
   style="fill:none;stroke:#474d54;stroke-width:15;stroke-linecap:round;stroke-linejoin:round;stroke-miterlimit:10"
   d="m 491.918,408.0795 c 6.919,0 12.582,-5.661 12.582,-12.582 v -2.765 c 0,-6.92 -5.661,-12.582 -12.582,-12.582"
   id="path6"
   inkscape:connector-curvature="0" />
<path
   style="fill:#abffdb"
   d="m 221.066,380.1505 c 0,-5.87 0,-231.309 0,-239.982 0,-3.262 2.645,-5.907 5.907,-5.907 h 187.7 V 15.195503 c 0,-5.274 -5.184,-8.987 -10.178,-7.288 L 49.809,128.5735 c -6.482,2.205 -10.841,8.293 -10.841,15.14 v 236.438 z"
   id="path8"
   inkscape:connector-curvature="0" />
<path
   style="fill:#92e0c0"
   d="m 61.412,124.6265 -11.603,3.947 c -6.482,2.205 -10.841,8.292 -10.841,15.14 v 236.438 H 58.97 v -246.834 c 0,-3.144 0.881,-6.132 2.442,-8.691 z"
   id="path10"
   inkscape:connector-curvature="0" />
<path
   style="fill:#ffffff"
   d="M 474.506,132.2615 H 224.974 c -3.262,0 -5.907,2.645 -5.907,5.907 0,8.673 0,236.111 0,241.982 h 261.555 c 0,-5.412 0,-237.337 0,-241.774 -0.001,-3.376 -2.739,-6.115 -6.116,-6.115 z"
   id="path12"
   inkscape:connector-curvature="0" />
<path
   style="fill:#e4eaf8"
   d="m 239.067,380.1505 c 0,-5.87 0,-233.309 0,-241.982 0,-3.262 2.645,-5.907 5.907,-5.907 h -20.001 c -3.262,0 -5.907,2.645 -5.907,5.907 0,8.673 0,236.111 0,241.982 h 20.001 z"
   id="path14"
   inkscape:connector-curvature="0" />
<path
   style="fill:#ffc850"
   d="M 474.506,132.2615 H 224.974 c -3.262,0 -5.907,2.645 -5.907,5.907 0,3.302 0,42.892 0,90.974 h 261.555 c 0,-48.97 0,-89.058 0,-90.766 -0.001,-3.377 -2.739,-6.115 -6.116,-6.115 z"
   id="path16"
   inkscape:connector-curvature="0" />
<path
   style="fill:#fea82f"
   d="m 219.066,138.1695 c 0,3.302 0,42.892 0,90.974 h 20.001 c 0,-46.897 0,-87.409 0,-90.974 0,-3.262 2.645,-5.907 5.907,-5.907 h -20.001 c -3.219,-10e-4 -5.907,2.606 -5.907,5.907 z"
   id="path18"
   inkscape:connector-curvature="0" />
<path
   style="fill:#ffc850"
   d="M 411.642,257.4515 H 287.941 c -1.617,0 -2.928,1.311 -2.928,2.928 0,4.299 0,116.861 0,119.771 h 129.661 c 0,-2.683 0,-117.469 0,-119.668 0,-1.674 -1.357,-3.031 -3.032,-3.031 z"
   id="path20"
   inkscape:connector-curvature="0" />
<path
   style="fill:#fea82f"
   d="m 349.843,257.4515 h -61.902 c -1.617,0 -2.928,1.311 -2.928,2.928 0,4.299 0,116.861 0,119.771 h 64.83 z"
   id="path22"
   inkscape:connector-curvature="0" />
<path
   style="fill:#ff8031"
   d="m 307.943,257.4515 h -20.001 c -1.617,0 -2.928,1.311 -2.928,2.928 0,4.299 0,116.861 0,119.771 h 20.001 c 0,-2.91 0,-115.472 0,-119.771 -10e-4,-1.617 1.311,-2.928 2.928,-2.928 z"
   id="path24"
   inkscape:connector-curvature="0" />
<rect
   x="77.485001"
   y="342.39349"
   style="fill:#6dc296"
   width="103.276"
   height="37.751999"
   id="rect26" />
<rect
   x="77.485001"
   y="304.64151"
   style="fill:#92e0c0"
   width="103.276"
   height="37.751999"
   id="rect28" />
<rect
   x="77.485001"
   y="266.89951"
   style="fill:#6dc296"
   width="103.276"
   height="37.751999"
   id="rect30" />
<rect
   x="77.485001"
   y="342.39349"
   style="fill:#5fa77e"
   width="20.000999"
   height="37.751999"
   id="rect32" />
<rect
   x="77.485001"
   y="304.64151"
   style="fill:#6dc296"
   width="20.000999"
   height="37.751999"
   id="rect34" />
<rect
   x="77.485001"
   y="266.89951"
   style="fill:#5fa77e"
   width="20.000999"
   height="37.751999"
   id="rect36" />
<path
   style="fill:#92e0c0"
   d="m 180.759,266.8955 v -30.306 c 0,-4.112 -3.333,-7.445 -7.445,-7.445 H 84.931 c -4.112,0 -7.445,3.333 -7.445,7.445 v 30.306 z"
   id="path38"
   inkscape:connector-curvature="0" />
<path
   style="fill:#6dc296"
   d="M 104.932,229.1425 H 84.931 c -4.112,0 -7.445,3.333 -7.445,7.445 v 30.306 h 20.001 v -30.306 c 0,-4.111 3.334,-7.445 7.445,-7.445 z"
   id="path40"
   inkscape:connector-curvature="0" />
<path
   style="fill:#c2c7d0"
   d="m 491.878,379.6285 c -12.115,0 -467.36,0 -471.836,0 -6.919,0 -12.582,5.767 -12.582,12.817 v 2.817 c 0,7.049 5.661,12.817 12.582,12.817 4.299,0 465.836,0 471.836,0"
   id="path42"
   inkscape:connector-curvature="0" />
<path
   style="fill:#abb0b7"
   d="m 491.878,393.8535 c -5.999,0 -467.536,0 -471.836,0 -4.908,0 -9.173,-2.909 -11.244,-7.112 -0.848,1.722 -1.338,3.655 -1.338,5.704 v 2.817 c 0,7.049 5.661,12.817 12.582,12.817 4.299,0 465.836,0 471.836,0"
   id="path44"
   inkscape:connector-curvature="0" />
<g
   id="g54"
   transform="translate(0,-48.209497)">
	<path
   style="fill:#ffffff"
   d="m 291.995,238.527 c -1.021,1.729 -2.594,2.279 -4.087,2.279 -1.415,0 -2.908,-0.472 -3.852,-2.279 l -7.467,-13.677 v 30.262 c 0,2.515 -3.065,3.772 -6.13,3.772 -3.065,0 -6.131,-1.258 -6.131,-3.772 v -47.555 c 0,-4.48 3.065,-6.13 6.131,-6.13 4.401,0 6.288,0.472 9.511,6.13 l 8.096,14.149 8.096,-14.149 c 3.222,-5.659 5.109,-6.13 9.511,-6.13 3.144,0 6.13,1.65 6.13,6.13 v 47.555 c 0,2.515 -3.065,3.772 -6.13,3.772 -3.065,0 -6.131,-1.258 -6.131,-3.772 v -29.477 z"
   id="path46"
   inkscape:connector-curvature="0" />
	<path
   style="fill:#ffffff"
   d="m 316.36,253.854 c 0,-0.236 0.079,-0.55 0.157,-0.865 l 14.62,-47.948 c 0.865,-2.751 4.401,-4.087 8.017,-4.087 3.615,0 7.152,1.336 8.017,4.087 l 14.699,47.948 c 0.079,0.314 0.157,0.629 0.157,0.865 0,2.908 -4.48,5.03 -7.86,5.03 -1.965,0 -3.537,-0.629 -4.009,-2.279 l -2.672,-9.826 h -16.585 l -2.672,9.826 c -0.472,1.65 -2.043,2.279 -4.008,2.279 -3.381,0 -7.861,-2.122 -7.861,-5.03 z m 28.534,-16.506 -5.738,-21.065 -5.738,21.065 z"
   id="path48"
   inkscape:connector-curvature="0" />
	<path
   style="fill:#ffffff"
   d="m 371.932,258.884 c -2.672,0 -5.345,-1.258 -5.345,-3.772 V 205.12 c 0,-2.594 3.065,-3.694 6.131,-3.694 3.066,0 6.13,1.1 6.13,3.694 v 43.075 h 17.921 c 2.358,0 3.537,2.672 3.537,5.345 0,2.672 -1.179,5.345 -3.537,5.345 h -24.838 v -10e-4 z"
   id="path50"
   inkscape:connector-curvature="0" />
	<path
   style="fill:#ffffff"
   d="m 410.604,258.884 c -2.672,0 -5.345,-1.258 -5.345,-3.772 V 205.12 c 0,-2.594 3.065,-3.694 6.131,-3.694 3.066,0 6.13,1.1 6.13,3.694 v 43.075 h 17.921 c 2.358,0 3.537,2.672 3.537,5.345 0,2.672 -1.179,5.345 -3.537,5.345 h -24.838 v -10e-4 z"
   id="path52"
   inkscape:connector-curvature="0" />
</g>
<g
   id="g60"
   transform="translate(0,-48.209497)">
	<path
   style="fill:#474d54"
   d="M 238.498,448.789 H 20.082 c -2.754,0 -5.081,-2.327 -5.081,-5.081 v -2.765 c 0,-2.754 2.327,-5.081 5.081,-5.081 h 471.837 c 4.142,0 7.5,-3.358 7.5,-7.5 0,-4.142 -3.358,-7.5 -7.5,-7.5 h -3.756 V 347.25 c 0,-4.142 -3.358,-7.5 -7.5,-7.5 -4.142,0 -7.5,3.358 -7.5,7.5 v 73.612 H 226.607 V 284.853 h 246.554 v 27.392 c 0,4.142 3.358,7.5 7.5,7.5 4.142,0 7.5,-3.358 7.5,-7.5 V 186.587 c 0,-6.276 -4.268,-11.574 -10.055,-13.143 -0.054,-0.015 -0.108,-0.029 -0.163,-0.043 -0.38,-0.098 -0.767,-0.18 -1.159,-0.245 -0.112,-0.019 -0.225,-0.036 -0.338,-0.052 -0.113,-0.016 -0.227,-0.03 -0.34,-0.043 -0.512,-0.059 -1.033,-0.089 -1.561,-0.089 h -52.331 v -19.897 c 4.016,-0.143 7.229,-3.443 7.229,-7.495 0,-4.052 -3.212,-7.352 -7.229,-7.495 v -15.709 c 4.016,-0.143 7.229,-3.443 7.229,-7.495 0,-4.052 -3.212,-7.352 -7.229,-7.495 V 63.405 c 0,-4.89 -2.374,-9.51 -6.35,-12.357 -3.976,-2.848 -9.116,-3.607 -13.744,-2.031 L 47.434,169.683 c -9.526,3.24 -15.926,12.179 -15.926,22.24 V 420.86 H 20.082 C 9.009,420.86 0,429.869 0,440.942 v 2.765 c 0,11.074 9.009,20.082 20.082,20.082 h 218.417 c 4.142,0 7.5,-3.358 7.5,-7.5 0,-4.142 -3.358,-7.5 -7.501,-7.5 z M 473.161,269.852 H 226.607 v -81.88 H 473.161 Z M 46.509,191.922 c 0,-3.637 2.313,-6.867 5.756,-8.039 L 406.952,63.218 c 0.058,-0.021 0.097,-0.033 0.179,0.026 0.082,0.059 0.083,0.1 0.083,0.161 v 43.975 h -57.33 c -4.142,0 -7.5,3.358 -7.5,7.5 0,4.142 3.358,7.5 7.5,7.5 h 57.33 v 15.698 h -57.33 c -4.142,0 -7.5,3.358 -7.5,7.5 0,4.142 3.358,7.5 7.5,7.5 h 57.33 v 19.891 h -182.2 c -0.462,0 -0.919,0.023 -1.369,0.069 -0.113,0.011 -0.225,0.024 -0.336,0.039 -0.111,0.015 -0.223,0.03 -0.334,0.047 -0.111,0.017 -0.221,0.035 -0.331,0.055 -0.165,0.03 -0.329,0.062 -0.492,0.098 -6.022,1.314 -10.547,6.689 -10.547,13.1 V 420.86 H 46.509 Z"
   id="path56"
   inkscape:connector-curvature="0" />
	<path
   style="fill:#474d54"
   d="M 491.918,448.789 H 273.501 c -4.142,0 -7.5,3.358 -7.5,7.5 0,4.142 3.358,7.5 7.5,7.5 h 218.417 c 4.142,0 7.5,-3.358 7.5,-7.5 0,-4.142 -3.358,-7.5 -7.5,-7.5 z"
   id="path58"
   inkscape:connector-curvature="0" />
</g>
<g
   id="g62"
   transform="translate(0,-48.209497)">
</g>
<g
   id="g64"
   transform="translate(0,-48.209497)">
</g>
<g
   id="g66"
   transform="translate(0,-48.209497)">
</g>
<g
   id="g68"
   transform="translate(0,-48.209497)">
</g>
<g
   id="g70"
   transform="translate(0,-48.209497)">
</g>
<g
   id="g72"
   transform="translate(0,-48.209497)">
</g>
<g
   id="g74"
   transform="translate(0,-48.209497)">
</g>
<g
   id="g76"
   transform="translate(0,-48.209497)">
</g>
<g
   id="g78"
   transform="translate(0,-48.209497)">
</g>
<g
   id="g80"
   transform="translate(0,-48.209497)">
</g>
<g
   id="g82"
   transform="translate(0,-48.209497)">
</g>
<g
   id="g84"
   transform="translate(0,-48.209497)">
</g>
<g
   id="g86"
   transform="translate(0,-48.209497)">
</g>
<g
   id="g88"
   transform="translate(0,-48.209497)">
</g>
<g
   id="g90"
   transform="translate(0,-48.209497)">
</g>
</svg>