<?xml version="1.0" encoding="UTF-8" standalone="no"?>
<!-- Created with Inkscape (http://www.inkscape.org/) -->

<svg
   xmlns:dc="http://purl.org/dc/elements/1.1/"
   xmlns:cc="http://creativecommons.org/ns#"
   xmlns:rdf="http://www.w3.org/1999/02/22-rdf-syntax-ns#"
   xmlns:svg="http://www.w3.org/2000/svg"
   xmlns="http://www.w3.org/2000/svg"
   xmlns:sodipodi="http://sodipodi.sourceforge.net/DTD/sodipodi-0.dtd"
   xmlns:inkscape="http://www.inkscape.org/namespaces/inkscape"
   width="135.46666mm"
   height="109.9556mm"
   viewBox="0 0 135.46666 109.9556"
   version="1.1"
   id="svg8"
   inkscape:version="0.92.4 (5da689c313, 2019-01-14)"
   sodipodi:docname="mall.svg">
  <defs
     id="defs2" />
  <sodipodi:namedview
     id="base"
     pagecolor="#ffffff"
     bordercolor="#666666"
     borderopacity="1.0"
     inkscape:pageopacity="0.0"
     inkscape:pageshadow="2"
     inkscape:zoom="1.4"
     inkscape:cx="318.55763"
     inkscape:cy="200.14507"
     inkscape:document-units="mm"
     inkscape:current-layer="g909"
     showgrid="false"
     inkscape:window-width="1920"
     inkscape:window-height="1017"
     inkscape:window-x="-8"
     inkscape:window-y="-8"
     inkscape:window-maximized="1" />
  <metadata
     id="metadata5">
    <rdf:RDF>
      <cc:Work
         rdf:about="">
        <dc:format>image/svg+xml</dc:format>
        <dc:type
           rdf:resource="http://purl.org/dc/dcmitype/StillImage" />
        <dc:title></dc:title>
      </cc:Work>
    </rdf:RDF>
  </metadata>
  <g
     inkscape:label="Layer 1"
     inkscape:groupmode="layer"
     id="layer1"
     transform="translate(-74.385715,-106.70672)">
    <g
       id="g909"
       transform="matrix(0.26458333,0,0,0.26458333,74.385715,106.70672)">
      <path
         inkscape:connector-curvature="0"
         id="path2"
         d="m 491.878,408.0785 c 6.919,0 12.582,-5.767 12.582,-12.817 v -2.817 c 0,-7.049 -5.661,-12.817 -12.582,-12.817"
         style="fill:#c2c7d0" />
      <path
         inkscape:connector-curvature="0"
         id="path4"
         d="m 491.878,408.0785 c 6.919,0 12.582,-5.767 12.582,-12.817 v -2.817 c 0,-2.049 -0.49,-3.982 -1.338,-5.704 -2.07,4.203 -6.334,7.112 -11.244,7.112"
         style="fill:#abb0b7" />
      <path
         inkscape:connector-curvature="0"
         id="path6"
         d="m 491.918,408.0795 c 6.919,0 12.582,-5.661 12.582,-12.582 v -2.765 c 0,-6.92 -5.661,-12.582 -12.582,-12.582"
         style="fill:none;stroke:#474d54;stroke-width:15;stroke-linecap:round;stroke-linejoin:round;stroke-miterlimit:10" />
      <path
         inkscape:connector-curvature="0"
         id="path8"
         d="m 221.066,380.1505 c 0,-5.87 0,-231.309 0,-239.982 0,-3.262 2.645,-5.907 5.907,-5.907 h 187.7 V 15.195503 c 0,-5.274 -5.184,-8.987 -10.178,-7.288 L 49.809,128.5735 c -6.482,2.205 -10.841,8.293 -10.841,15.14 v 236.438 z"
         style="fill:#abffdb" />
      <path
         inkscape:connector-curvature="0"
         id="path10"
         d="m 61.412,124.6265 -11.603,3.947 c -6.482,2.205 -10.841,8.292 -10.841,15.14 v 236.438 H 58.97 v -246.834 c 0,-3.144 0.881,-6.132 2.442,-8.691 z"
         style="fill:#92e0c0" />
      <path
         inkscape:connector-curvature="0"
         id="path12"
         d="M 474.506,132.2615 H 224.974 c -3.262,0 -5.907,2.645 -5.907,5.907 0,8.673 0,236.111 0,241.982 h 261.555 c 0,-5.412 0,-237.337 0,-241.774 -0.001,-3.376 -2.739,-6.115 -6.116,-6.115 z"
         style="fill:#ffffff" />
      <path
         inkscape:connector-curvature="0"
         id="path14"
         d="m 239.067,380.1505 c 0,-5.87 0,-233.309 0,-241.982 0,-3.262 2.645,-5.907 5.907,-5.907 h -20.001 c -3.262,0 -5.907,2.645 -5.907,5.907 0,8.673 0,236.111 0,241.982 z"
         style="fill:#e4eaf8" />
      <path
         inkscape:connector-curvature="0"
         id="path16"
         d="M 474.506,132.2615 H 224.974 c -3.262,0 -5.907,2.645 -5.907,5.907 0,3.302 0,42.892 0,90.974 h 261.555 c 0,-48.97 0,-89.058 0,-90.766 -0.001,-3.377 -2.739,-6.115 -6.116,-6.115 z"
         style="fill:#ffc850" />
      <path
         inkscape:connector-curvature="0"
         id="path18"
         d="m 219.066,138.1695 c 0,3.302 0,42.892 0,90.974 h 20.001 c 0,-46.897 0,-87.409 0,-90.974 0,-3.262 2.645,-5.907 5.907,-5.907 h -20.001 c -3.219,-10e-4 -5.907,2.606 -5.907,5.907 z"
         style="fill:#fea82f" />
      <path
         inkscape:connector-curvature="0"
         id="path20"
         d="M 411.642,257.4515 H 287.941 c -1.617,0 -2.928,1.311 -2.928,2.928 0,4.299 0,116.861 0,119.771 h 129.661 c 0,-2.683 0,-117.469 0,-119.668 0,-1.674 -1.357,-3.031 -3.032,-3.031 z"
         style="fill:#ffc850" />
      <path
         inkscape:connector-curvature="0"
         id="path22"
         d="m 349.843,257.4515 h -61.902 c -1.617,0 -2.928,1.311 -2.928,2.928 0,4.299 0,116.861 0,119.771 h 64.83 z"
         style="fill:#fea82f" />
      <path
         inkscape:connector-curvature="0"
         id="path24"
         d="m 307.943,257.4515 h -20.001 c -1.617,0 -2.928,1.311 -2.928,2.928 0,4.299 0,116.861 0,119.771 h 20.001 c 0,-2.91 0,-115.472 0,-119.771 -10e-4,-1.617 1.311,-2.928 2.928,-2.928 z"
         style="fill:#ff8031" />
      <rect
         id="rect26"
         height="37.751999"
         width="103.276"
         style="fill:#6dc296"
         y="342.39349"
         x="77.485001" />
      <rect
         id="rect28"
         height="37.751999"
         width="103.276"
         style="fill:#92e0c0"
         y="304.64151"
         x="77.485001" />
      <rect
         id="rect30"
         height="37.751999"
         width="103.276"
         style="fill:#6dc296"
         y="266.89951"
         x="77.485001" />
      <rect
         id="rect32"
         height="37.751999"
         width="20.000999"
         style="fill:#5fa77e"
         y="342.39349"
         x="77.485001" />
      <rect
         id="rect34"
         height="37.751999"
         width="20.000999"
         style="fill:#6dc296"
         y="304.64151"
         x="77.485001" />
      <rect
         id="rect36"
         height="37.751999"
         width="20.000999"
         style="fill:#5fa77e"
         y="266.89951"
         x="77.485001" />
      <path
         inkscape:connector-curvature="0"
         id="path38"
         d="m 180.759,266.8955 v -30.306 c 0,-4.112 -3.333,-7.445 -7.445,-7.445 H 84.931 c -4.112,0 -7.445,3.333 -7.445,7.445 v 30.306 z"
         style="fill:#92e0c0" />
      <path
         inkscape:connector-curvature="0"
         id="path40"
         d="M 104.932,229.1425 H 84.931 c -4.112,0 -7.445,3.333 -7.445,7.445 v 30.306 h 20.001 v -30.306 c 0,-4.111 3.334,-7.445 7.445,-7.445 z"
         style="fill:#6dc296" />
      <path
         inkscape:connector-curvature="0"
         id="path42"
         d="m 491.878,379.6285 c -12.115,0 -467.36,0 -471.836,0 -6.919,0 -12.582,5.767 -12.582,12.817 v 2.817 c 0,7.049 5.661,12.817 12.582,12.817 4.299,0 465.836,0 471.836,0"
         style="fill:#c2c7d0" />
      <path
         inkscape:connector-curvature="0"
         id="path44"
         d="m 491.878,393.8535 c -5.999,0 -467.536,0 -471.836,0 -4.908,0 -9.173,-2.909 -11.244,-7.112 -0.848,1.722 -1.338,3.655 -1.338,5.704 v 2.817 c 0,7.049 5.661,12.817 12.582,12.817 4.299,0 465.836,0 471.836,0"
         style="fill:#abb0b7" />
      <g
         transform="translate(0,-48.209497)"
         id="g60">
	<path
   inkscape:connector-curvature="0"
   id="path56"
   d="M 238.498,448.789 H 20.082 c -2.754,0 -5.081,-2.327 -5.081,-5.081 v -2.765 c 0,-2.754 2.327,-5.081 5.081,-5.081 h 471.837 c 4.142,0 7.5,-3.358 7.5,-7.5 0,-4.142 -3.358,-7.5 -7.5,-7.5 h -3.756 V 347.25 c 0,-4.142 -3.358,-7.5 -7.5,-7.5 -4.142,0 -7.5,3.358 -7.5,7.5 v 73.612 H 226.607 V 284.853 h 246.554 v 27.392 c 0,4.142 3.358,7.5 7.5,7.5 4.142,0 7.5,-3.358 7.5,-7.5 V 186.587 c 0,-6.276 -4.268,-11.574 -10.055,-13.143 -0.054,-0.015 -0.108,-0.029 -0.163,-0.043 -0.38,-0.098 -0.767,-0.18 -1.159,-0.245 -0.112,-0.019 -0.225,-0.036 -0.338,-0.052 -0.113,-0.016 -0.227,-0.03 -0.34,-0.043 -0.512,-0.059 -1.033,-0.089 -1.561,-0.089 h -52.331 v -19.897 c 4.016,-0.143 7.229,-3.443 7.229,-7.495 0,-4.052 -3.212,-7.352 -7.229,-7.495 v -15.709 c 4.016,-0.143 7.229,-3.443 7.229,-7.495 0,-4.052 -3.212,-7.352 -7.229,-7.495 V 63.405 c 0,-4.89 -2.374,-9.51 -6.35,-12.357 -3.976,-2.848 -9.116,-3.607 -13.744,-2.031 L 47.434,169.683 c -9.526,3.24 -15.926,12.179 -15.926,22.24 V 420.86 H 20.082 C 9.009,420.86 0,429.869 0,440.942 v 2.765 c 0,11.074 9.009,20.082 20.082,20.082 h 218.417 c 4.142,0 7.5,-3.358 7.5,-7.5 0,-4.142 -3.358,-7.5 -7.501,-7.5 z M 473.161,269.852 H 226.607 v -81.88 H 473.161 Z M 46.509,191.922 c 0,-3.637 2.313,-6.867 5.756,-8.039 L 406.952,63.218 c 0.058,-0.021 0.097,-0.033 0.179,0.026 0.082,0.059 0.083,0.1 0.083,0.161 v 43.975 h -57.33 c -4.142,0 -7.5,3.358 -7.5,7.5 0,4.142 3.358,7.5 7.5,7.5 h 57.33 v 15.698 h -57.33 c -4.142,0 -7.5,3.358 -7.5,7.5 0,4.142 3.358,7.5 7.5,7.5 h 57.33 v 19.891 h -182.2 c -0.462,0 -0.919,0.023 -1.369,0.069 -0.113,0.011 -0.225,0.024 -0.336,0.039 -0.111,0.015 -0.223,0.03 -0.334,0.047 -0.111,0.017 -0.221,0.035 -0.331,0.055 -0.165,0.03 -0.329,0.062 -0.492,0.098 -6.022,1.314 -10.547,6.689 -10.547,13.1 V 420.86 H 46.509 Z"
   style="fill:#474d54" />

	<path
   inkscape:connector-curvature="0"
   id="path58"
   d="M 491.918,448.789 H 273.501 c -4.142,0 -7.5,3.358 -7.5,7.5 0,4.142 3.358,7.5 7.5,7.5 h 218.417 c 4.142,0 7.5,-3.358 7.5,-7.5 0,-4.142 -3.358,-7.5 -7.5,-7.5 z"
   style="fill:#474d54" />

</g>
      <g
         transform="translate(0,-48.209497)"
         id="g62">
</g>
      <g
         transform="translate(0,-48.209497)"
         id="g64">
</g>
      <g
         transform="translate(0,-48.209497)"
         id="g66">
</g>
      <g
         transform="translate(0,-48.209497)"
         id="g68">
</g>
      <g
         transform="translate(0,-48.209497)"
         id="g70">
</g>
      <g
         transform="translate(0,-48.209497)"
         id="g72">
</g>
      <g
         transform="translate(0,-48.209497)"
         id="g74">
</g>
      <g
         transform="translate(0,-48.209497)"
         id="g76">
</g>
      <g
         transform="translate(0,-48.209497)"
         id="g78">
</g>
      <g
         transform="translate(0,-48.209497)"
         id="g80">
</g>
      <g
         transform="translate(0,-48.209497)"
         id="g82">
</g>
      <g
         transform="translate(0,-48.209497)"
         id="g84">
</g>
      <g
         transform="translate(0,-48.209497)"
         id="g86">
</g>
      <g
         transform="translate(0,-48.209497)"
         id="g88">
</g>
      <g
         transform="translate(0,-48.209497)"
         id="g90">
</g>
      <g
         id="g943"
         transform="matrix(1.1772653,0,0,0.98130276,226.607,135.83426)">
        <g
           transform="translate(-0.60589456,-99.399362)"
           inkscape:label="Layer 2"
           id="layer2" />
        <g
           transform="translate(-0.60589456,-99.399362)"
           id="layer1-6"
           inkscape:label="Layer 1">
          <g
             transform="matrix(1.8844569,0,0,2.0806225,-21.904284,-107.4132)"
             id="g4539">
            <rect
               style="fill:#0095c7;fill-opacity:1;stroke:none;stroke-width:1.13754368;stroke-linejoin:round;stroke-miterlimit:4;stroke-dasharray:none;stroke-opacity:1"
               id="rect942"
               width="111.43255"
               height="49.374653"
               x="11.945181"
               y="99.399368"
               ry="0" />
            <text
               xml:space="preserve"
               style="font-style:normal;font-weight:normal;font-size:22.57777786px;line-height:1.25;font-family:sans-serif;letter-spacing:0px;word-spacing:0px;fill:#ffffff;fill-opacity:1;stroke:none;stroke-width:0.26458332"
               x="13.607144"
               y="132.29688"
               id="text833"><tspan
                 sodipodi:role="line"
                 id="tspan831"
                 x="13.607144"
                 y="132.29688"
                 style="font-size:22.57777786px;fill:#ffffff;fill-opacity:1;stroke-width:0.26458332">CESTEG</tspan></text>
            <path
               style="fill:none;fill-opacity:1;stroke:#ffffff;stroke-width:1.81466246;stroke-linejoin:round;stroke-miterlimit:4;stroke-dasharray:none;stroke-opacity:1"
               id="path835-8"
               sodipodi:type="arc"
               sodipodi:cx="96.639275"
               sodipodi:cy="123.8194"
               sodipodi:rx="13.520801"
               sodipodi:ry="12.13414"
               sodipodi:start="4.0818445"
               sodipodi:end="0.78539816"
               d="m 88.667618,114.01857 a 13.520801,12.13414 0 0 1 18.243172,1.91007 13.520801,12.13414 0 0 1 -0.71087,16.47089"
               inkscape:transform-center-x="2.0342186"
               inkscape:transform-center-y="-0.48476707"
               sodipodi:open="true" />
            <path
               style="fill:none;fill-opacity:1;stroke:#ffffff;stroke-width:1.79999995;stroke-linejoin:round;stroke-miterlimit:4;stroke-dasharray:none;stroke-opacity:1"
               id="path835-8-2"
               sodipodi:type="arc"
               sodipodi:cx="96.639275"
               sodipodi:cy="123.8194"
               sodipodi:rx="22.665771"
               sodipodi:ry="20.341225"
               sodipodi:start="4.9741884"
               sodipodi:end="1.5707963"
               d="m 102.50561,104.17128 a 22.665771,20.341225 0 0 1 16.60553,22.30318 22.665771,20.341225 0 0 1 -22.471865,17.68616"
               inkscape:transform-center-x="3.4100947"
               inkscape:transform-center-y="-0.81264912"
               sodipodi:open="true" />
            <path
               style="fill:none;fill-opacity:1;stroke:#ffffff;stroke-width:1.62199998;stroke-linejoin:round;stroke-miterlimit:4;stroke-dasharray:none;stroke-opacity:1"
               id="path835-8-2-3"
               sodipodi:type="arc"
               sodipodi:cx="96.639275"
               sodipodi:cy="123.8194"
               sodipodi:rx="17.908459"
               sodipodi:ry="16.07181"
               sodipodi:start="4.4505896"
               sodipodi:end="1.0471976"
               d="m 92.004225,108.29522 a 17.908459,16.07181 0 0 1 21.180305,9.37376 17.908459,16.07181 0 0 1 -7.59103,20.06901"
               inkscape:transform-center-x="2.6943442"
               inkscape:transform-center-y="-0.6421001"
               sodipodi:open="true" />
            <ellipse
               style="fill:#ffffff;fill-opacity:1;stroke:#ffffff;stroke-width:0.19947189;stroke-linejoin:round;stroke-miterlimit:4;stroke-dasharray:none;stroke-opacity:1"
               id="path892-8"
               cx="87.998489"
               cy="114.52726"
               rx="1.7368606"
               ry="1.7242053" />
            <ellipse
               style="fill:#ffffff;fill-opacity:1;stroke:#ffffff;stroke-width:0.19947189;stroke-linejoin:round;stroke-miterlimit:4;stroke-dasharray:none;stroke-opacity:1"
               id="path892-8-2"
               cx="92.207985"
               cy="108.30771"
               rx="1.7368606"
               ry="1.7242053" />
            <ellipse
               style="fill:#ffffff;fill-opacity:1;stroke:#ffffff;stroke-width:0.19947189;stroke-linejoin:round;stroke-miterlimit:4;stroke-dasharray:none;stroke-opacity:1"
               id="path892-8-6"
               cx="102.09695"
               cy="104.09822"
               rx="1.7368606"
               ry="1.7242053" />
            <text
               xml:space="preserve"
               style="font-style:normal;font-weight:normal;font-size:4.93888903px;line-height:1.25;font-family:sans-serif;letter-spacing:0px;word-spacing:0px;fill:#ffffff;fill-opacity:1;stroke:none;stroke-width:0.26458332"
               x="22.717909"
               y="138.77644"
               id="text940"><tspan
                 sodipodi:role="line"
                 id="tspan938"
                 x="22.717909"
                 y="138.77644"
                 style="font-size:4.93888903px;fill:#ffffff;fill-opacity:1;stroke-width:0.26458332">CRAFTING YOUR DREAMS</tspan></text>
          </g>
        </g>
      </g>
    </g>
  </g>
</svg>
