<?xml version="1.0" encoding="iso-8859-1"?>
<!-- Generator: Adobe Illustrator 19.0.0, SVG Export Plug-In . SVG Version: 6.00 Build 0)  -->
<svg version="1.1" id="Capa_1" xmlns="http://www.w3.org/2000/svg" xmlns:xlink="http://www.w3.org/1999/xlink" x="0px" y="0px"
	 viewBox="0 0 512 512" style="enable-background:new 0 0 512 512;" xml:space="preserve">
<path style="fill:#AFC3D7;" d="M54.714,465.292c9.996,0.838,19.572-2.223,26.938-8.913c7.273-6.598,11.439-16.012,11.439-25.833
	V139.636H34.909c-6.412,0-11.636,5.213-11.636,11.636v277.271C23.273,447.465,37.085,463.616,54.714,465.292z"/>
<path style="fill:#EBEEF7;" d="M488.727,58.182c0-6.423-5.225-11.636-11.636-11.636H128c-6.412,0-11.636,5.213-11.636,11.636
	v372.364c0,13.091-4.41,25.193-11.823,34.909h349.277c19.247,0,34.909-15.663,34.909-34.909V58.182z"/>
<g>
	<path style="fill:#004463;" d="M349.091,104.727H256c-6.423,0-11.636-5.201-11.636-11.636S249.577,81.455,256,81.455h93.091
		c6.423,0,11.636,5.201,11.636,11.636S355.514,104.727,349.091,104.727z"/>
	<path style="fill:#004463;" d="M442.182,162.909H302.545c-6.423,0-11.636-5.201-11.636-11.636c0-6.435,5.213-11.636,11.636-11.636
		h139.636c6.423,0,11.636,5.201,11.636,11.636C453.818,157.708,448.605,162.909,442.182,162.909z"/>
	<path style="fill:#004463;" d="M442.182,209.455H302.545c-6.423,0-11.636-5.201-11.636-11.636s5.213-11.636,11.636-11.636h139.636
		c6.423,0,11.636,5.201,11.636,11.636S448.605,209.455,442.182,209.455z"/>
	<path style="fill:#004463;" d="M442.182,256H302.545c-6.423,0-11.636-5.201-11.636-11.636s5.213-11.636,11.636-11.636h139.636
		c6.423,0,11.636,5.201,11.636,11.636S448.605,256,442.182,256z"/>
	<path style="fill:#004463;" d="M442.182,372.364H162.909c-6.423,0-11.636-5.201-11.636-11.636s5.213-11.636,11.636-11.636h279.273
		c6.423,0,11.636,5.201,11.636,11.636S448.605,372.364,442.182,372.364z"/>
	<path style="fill:#004463;" d="M442.182,418.909H162.909c-6.423,0-11.636-5.201-11.636-11.636s5.213-11.636,11.636-11.636h279.273
		c6.423,0,11.636,5.201,11.636,11.636S448.605,418.909,442.182,418.909z"/>
	<path style="fill:#004463;" d="M360.727,302.545h-58.182c-6.423,0-11.636-5.201-11.636-11.636s5.213-11.636,11.636-11.636h58.182
		c6.423,0,11.636,5.201,11.636,11.636S367.151,302.545,360.727,302.545z"/>
</g>
<path style="fill:#70B6E4;" d="M256,256h-93.091c-6.423,0-11.636-5.213-11.636-11.636v-93.091c0-6.423,5.213-11.636,11.636-11.636
	H256c6.423,0,11.636,5.213,11.636,11.636v93.091C267.636,250.787,262.423,256,256,256z"/>
<path style="fill:#4C9BD5;" d="M267.636,204.8v39.564c0,6.4-5.236,11.636-11.636,11.636h-93.091c-6.4,0-11.636-5.236-11.636-11.636
	v-53.411c18.618-8.145,42.356-5.818,58.182,6.865S249.018,212.829,267.636,204.8z"/>
<g>
	<circle style="fill:#004362;" cx="162.909" cy="290.909" r="11.636"/>
	<circle style="fill:#004362;" cx="209.455" cy="290.909" r="11.636"/>
	<circle style="fill:#004362;" cx="256" cy="290.909" r="11.636"/>
</g>
<path style="fill:#004463;" d="M477.091,23.273H128c-19.247,0-34.909,15.663-34.909,34.909v58.182H34.909
	C15.663,116.364,0,132.026,0,151.273v277.271c0,30.79,23.063,57.1,52.503,59.904c1.85,0.186,3.712,0.279,5.551,0.279
	c0.023,0,395.764,0,395.764,0c32.081,0,58.182-26.1,58.182-58.182V58.182C512,38.935,496.337,23.273,477.091,23.273z
	 M58.182,465.455c-0.035,0-2.292-0.058-3.468-0.163c-17.629-1.676-31.441-17.827-31.441-36.748V151.273
	c0-6.423,5.225-11.636,11.636-11.636h58.182v46.545H69.818c-6.423,0-11.636,5.201-11.636,11.636s5.213,11.636,11.636,11.636h23.273
	v23.273H69.818c-6.423,0-11.636,5.201-11.636,11.636S63.395,256,69.818,256h23.273v23.273H69.818
	c-6.423,0-11.636,5.201-11.636,11.636s5.213,11.636,11.636,11.636h23.273v46.545H69.818c-6.423,0-11.636,5.201-11.636,11.636
	s5.213,11.636,11.636,11.636h23.273v23.273H69.818c-6.423,0-11.636,5.201-11.636,11.636s5.213,11.636,11.636,11.636h23.273v11.636
	C93.091,449.559,77.37,465.373,58.182,465.455z M488.727,430.545c0,19.247-15.663,34.909-34.909,34.909H104.541
	c7.412-9.716,11.823-21.818,11.823-34.909v-23.273V128V58.182c0-6.423,5.225-11.636,11.636-11.636h349.091
	c6.412,0,11.636,5.213,11.636,11.636V430.545z"/>
<g>
</g>
<g>
</g>
<g>
</g>
<g>
</g>
<g>
</g>
<g>
</g>
<g>
</g>
<g>
</g>
<g>
</g>
<g>
</g>
<g>
</g>
<g>
</g>
<g>
</g>
<g>
</g>
<g>
</g>
</svg>
