<?xml version="1.0" encoding="UTF-8" standalone="no"?>
<!-- Generator: Adobe Illustrator 17.1.0, SVG Export Plug-In . SVG Version: 6.00 Build 0)  -->

<svg
   xmlns:dc="http://purl.org/dc/elements/1.1/"
   xmlns:cc="http://creativecommons.org/ns#"
   xmlns:rdf="http://www.w3.org/1999/02/22-rdf-syntax-ns#"
   xmlns:svg="http://www.w3.org/2000/svg"
   xmlns="http://www.w3.org/2000/svg"
   xmlns:sodipodi="http://sodipodi.sourceforge.net/DTD/sodipodi-0.dtd"
   xmlns:inkscape="http://www.inkscape.org/namespaces/inkscape"
   version="1.1"
   id="Capa_1"
   x="0px"
   y="0px"
   viewBox="0 0 456.005 357.08105"
   xml:space="preserve"
   sodipodi:docname="newspaper-folded.svg"
   width="456.005"
   height="357.08105"
   inkscape:version="0.92.4 (5da689c313, 2019-01-14)"><metadata
   id="metadata53"><rdf:RDF><cc:Work
       rdf:about=""><dc:format>image/svg+xml</dc:format><dc:type
         rdf:resource="http://purl.org/dc/dcmitype/StillImage" /></cc:Work></rdf:RDF></metadata><defs
   id="defs51" /><sodipodi:namedview
   pagecolor="#ffffff"
   bordercolor="#666666"
   borderopacity="1"
   objecttolerance="10"
   gridtolerance="10"
   guidetolerance="10"
   inkscape:pageopacity="0"
   inkscape:pageshadow="2"
   inkscape:window-width="1600"
   inkscape:window-height="821"
   id="namedview49"
   showgrid="false"
   inkscape:zoom="1.0373512"
   inkscape:cx="176.39646"
   inkscape:cy="27.850787"
   inkscape:window-x="-9"
   inkscape:window-y="-9"
   inkscape:window-maximized="1"
   inkscape:current-layer="g16" />
<g
   id="g16"
   style="fill:#000000;fill-opacity:1"
   transform="translate(0.5,-48.961931)">
	<rect
   style="fill:#fffffc;fill-opacity:1;stroke:#ffffff;stroke-width:24.01686478;stroke-linecap:round;stroke-linejoin:round;stroke-miterlimit:4;stroke-dasharray:none;stroke-opacity:1"
   id="rect835"
   width="266.70129"
   height="387.44681"
   x="-196.32773"
   y="143.35031"
   transform="matrix(0.75633816,-0.65418085,0.81829113,0.57480398,0,0)"
   ry="30.612988" /><path
   d="m 446.158,267.615 c -5.622,-3.103 -12.756,-2.421 -19.574,1.871 l -125.947,79.309 c -3.505,2.208 -4.557,6.838 -2.35,10.343 2.208,3.505 6.838,4.557 10.343,2.35 l 125.947,-79.309 c 2.66,-1.675 4.116,-1.552 4.331,-1.432 0.218,0.12 1.096,1.285 1.096,4.428 0,8.449 -6.271,19.809 -13.42,24.311 l -122.099,76.885 c -6.492,4.088 -12.427,5.212 -16.284,3.084 -3.856,-2.129 -6.067,-7.75 -6.067,-15.423 0,-19.438 13.896,-44.61 30.345,-54.967 l 139.023,-87.542 c 2.181,-1.373 3.503,-3.77 3.503,-6.347 0,-2.577 -1.323,-4.974 -3.503,-6.347 L 184.368,50.615 c -2.442,-1.538 -5.551,-1.538 -7.993,0 L 35.66,139.223 C 15.664,151.815 0,180.188 0,203.818 v 4 c 0,23.63 15.664,52.004 35.66,64.595 l 209.292,131.791 c 3.505,2.207 8.136,1.154 10.343,-2.35 2.207,-3.505 1.155,-8.136 -2.35,-10.343 L 43.653,259.72 C 28.121,249.941 15,226.172 15,207.818 v -4 c 0,-18.354 13.121,-42.122 28.653,-51.902 L 180.371,65.825 433.43,225.175 304.486,306.371 c -20.945,13.189 -37.352,42.909 -37.352,67.661 0,13.495 4.907,23.636 13.818,28.555 3.579,1.976 7.526,2.956 11.709,2.956 6.231,0 12.985,-2.176 19.817,-6.479 l 122.099,-76.885 c 11.455,-7.213 20.427,-23.467 20.427,-37.004 0,-8.056 -3.224,-14.456 -8.846,-17.56 z"
   id="path2"
   style="fill:#428dff;fill-opacity:1;stroke:#428dff;stroke-opacity:1"
   inkscape:connector-curvature="0" />
	<path
   d="m 353.664,232.676 c 2.492,0 4.928,-1.241 6.354,-3.504 2.207,-3.505 1.155,-8.136 -2.35,-10.343 l -173.3,-109.126 c -3.506,-2.207 -8.136,-1.154 -10.343,2.35 -2.207,3.505 -1.155,8.136 2.35,10.343 l 173.3,109.126 c 1.241,0.781 2.623,1.154 3.989,1.154 z"
   id="path4"
   style="fill:#428dff;fill-opacity:1"
   inkscape:connector-curvature="0" />
	<path
   d="m 323.68,252.58 c 2.497,0 4.938,-1.246 6.361,-3.517 2.201,-3.509 1.14,-8.138 -2.37,-10.338 L 254.46,192.82 c -3.511,-2.202 -8.139,-1.139 -10.338,2.37 -2.201,3.51 -1.14,8.138 2.37,10.338 l 73.211,45.905 c 1.238,0.777 2.615,1.147 3.977,1.147 z"
   id="path6"
   style="fill:#428dff;fill-opacity:1"
   inkscape:connector-curvature="0" />
	<path
   d="m 223.903,212.559 c -3.513,-2.194 -8.14,-1.124 -10.334,2.39 -2.194,3.514 -1.124,8.14 2.39,10.334 l 73.773,46.062 c 1.236,0.771 2.608,1.139 3.965,1.139 2.501,0 4.947,-1.251 6.369,-3.529 2.194,-3.514 1.124,-8.14 -2.39,-10.334 z"
   id="path8"
   style="fill:#428dff;fill-opacity:1"
   inkscape:connector-curvature="0" />
	<path
   d="m 145.209,129.33 -62.33,39.254 c -2.187,1.377 -3.511,3.783 -3.503,6.368 0.008,2.585 1.345,4.983 3.54,6.348 l 74.335,46.219 c 1.213,0.754 2.586,1.131 3.96,1.131 1.417,0 2.833,-0.401 4.071,-1.201 l 16.556,-10.7 c 3.479,-2.249 4.476,-6.891 2.228,-10.37 -2.248,-3.479 -6.891,-4.475 -10.37,-2.228 l -12.562,8.119 -60.119,-37.38 48.2,-30.355 59.244,37.147 -6.907,4.464 c -3.479,2.249 -4.476,6.891 -2.228,10.37 2.249,3.479 6.894,4.476 10.37,2.228 l 16.8,-10.859 c 2.153,-1.392 3.446,-3.787 3.429,-6.351 -0.018,-2.563 -1.344,-4.94 -3.516,-6.302 l -73.218,-45.909 c -2.44,-1.531 -5.542,-1.528 -7.98,0.007 z"
   id="path10"
   style="fill:#428dff;fill-opacity:1"
   inkscape:connector-curvature="0" />
	<path
   d="m 270.089,288.846 c 2.187,-3.518 1.109,-8.142 -2.409,-10.329 l -74.337,-46.221 c -3.518,-2.188 -8.143,-1.109 -10.329,2.409 -2.187,3.518 -1.109,8.142 2.409,10.329 l 74.337,46.221 c 1.232,0.767 2.601,1.132 3.953,1.132 2.506,0 4.956,-1.256 6.376,-3.541 z"
   id="path12"
   style="fill:#428dff;fill-opacity:1"
   inkscape:connector-curvature="0" />
	<path
   d="m 53.527,192.864 c -2.187,3.518 -1.109,8.142 2.409,10.329 l 183.478,114.081 c 1.232,0.767 2.601,1.132 3.953,1.132 2.506,0 4.956,-1.256 6.376,-3.541 2.187,-3.518 1.109,-8.142 -2.409,-10.329 L 63.856,190.455 c -3.518,-2.189 -8.142,-1.109 -10.329,2.409 z"
   id="path14"
   style="fill:#428dff;fill-opacity:1"
   inkscape:connector-curvature="0" />
</g>
<g
   id="g18"
   transform="translate(0.5,-48.961931)">
</g>
<g
   id="g20"
   transform="translate(0.5,-48.961931)">
</g>
<g
   id="g22"
   transform="translate(0.5,-48.961931)">
</g>
<g
   id="g24"
   transform="translate(0.5,-48.961931)">
</g>
<g
   id="g26"
   transform="translate(0.5,-48.961931)">
</g>
<g
   id="g28"
   transform="translate(0.5,-48.961931)">
</g>
<g
   id="g30"
   transform="translate(0.5,-48.961931)">
</g>
<g
   id="g32"
   transform="translate(0.5,-48.961931)">
</g>
<g
   id="g34"
   transform="translate(0.5,-48.961931)">
</g>
<g
   id="g36"
   transform="translate(0.5,-48.961931)">
</g>
<g
   id="g38"
   transform="translate(0.5,-48.961931)">
</g>
<g
   id="g40"
   transform="translate(0.5,-48.961931)">
</g>
<g
   id="g42"
   transform="translate(0.5,-48.961931)">
</g>
<g
   id="g44"
   transform="translate(0.5,-48.961931)">
</g>
<g
   id="g46"
   transform="translate(0.5,-48.961931)">
</g>
<path
   style="fill:#428dff;fill-opacity:1;stroke:none;stroke-width:28.60400009;stroke-linecap:round;stroke-linejoin:round;stroke-miterlimit:4;stroke-dasharray:none;stroke-opacity:1"
   d="M 138.73669,286.68314 C 63.426093,239.1484 28.49832,216.01546 23.260912,210.20264 13.654734,199.54106 4.8235559,180.82447 2.9762861,167.21187 -0.12632808,144.34859 8.3852022,118.73233 24.57697,102.20254 32.693573,93.916499 176.0735,2.3225315 180.92776,2.3225315 c 1.35393,0 63.12375,38.1993315 137.26628,84.8874075 109.89734,69.203131 134.80458,85.648421 134.80458,89.006251 0,3.30653 -11.40728,11.29369 -57.83962,40.49818 -92.91595,58.44127 -92.15544,57.91044 -100.08502,69.85686 -9.01186,13.57695 -12.92197,24.60947 -13.07864,36.90182 -0.20494,16.0812 5.68161,22.38888 16.91005,18.11984 3.01127,-1.14488 34.02138,-20.03715 68.91138,-41.98283 65.53541,-41.22151 70.72646,-45.40501 73.43422,-59.18109 2.75361,-14.00944 0.70308,-13.12241 -64.7074,27.99136 -34.29803,21.55804 -64.18989,40.36625 -66.42637,41.79603 -5.21216,3.33216 -10.40234,1.34876 -10.36288,-3.9601 0.0247,-3.32517 12.90225,-12.21433 65.969,-45.53731 41.71875,-26.19707 68.22297,-41.67233 72.15841,-42.13177 9.21089,-1.07531 16.08087,6.40931 16.08087,17.51962 0,10.61594 -7.95288,26.95957 -16.10522,33.09718 -10.97017,8.25906 -126.37862,80.2748 -133.23468,83.13944 -14.05539,5.87271 -26.13934,1.6037 -32.00007,-11.30498 -4.70443,-10.36182 -4.69273,-20.98715 0.0401,-36.3008 4.30047,-13.91508 12.00631,-26.95361 21.5991,-36.54641 3.60856,-3.60856 36.67952,-25.50903 73.49101,-48.66772 36.81148,-23.15868 66.91561,-42.67805 66.89805,-43.3764 C 434.62363,175.06592 186.34703,17.880181 181.98402,16.181905 179.1926,15.095362 40.67495,103.37031 33.287113,110.94392 c -3.97127,4.07113 -9.621198,12.31328 -12.555396,18.31588 -4.543231,9.29426 -5.338713,13.34571 -5.360561,27.30172 -0.02188,13.97986 0.748215,17.96364 5.240925,27.11166 2.89662,5.89807 8.102186,13.97579 11.567924,17.95047 4.04217,4.63575 45.008684,31.59268 114.264805,75.1889 68.84963,43.34035 108.2082,69.23303 108.63899,71.46991 0.66566,3.45648 -2.68603,6.92422 -6.45183,6.67524 -1.0604,-0.0702 -50.51327,-30.79366 -109.89528,-68.27456 z"
   id="path860"
   inkscape:connector-curvature="0" /></svg>