<?xml version="1.0" encoding="iso-8859-1"?>
<!-- Generator: Adobe Illustrator 19.0.0, SVG Export Plug-In . SVG Version: 6.00 Build 0)  -->
<svg version="1.1" id="Capa_1" xmlns="http://www.w3.org/2000/svg" xmlns:xlink="http://www.w3.org/1999/xlink" x="0px" y="0px"
	 viewBox="0 0 512 512" style="enable-background:new 0 0 512 512;" xml:space="preserve">
<path style="fill:#91CC04;" d="M279.758,207.558c-45.213-73.324,15.981-123.737,98.534-146.999
	c5.453-1.573,10.905,2.464,11.01,8.137C391.381,155.938,363.128,235.02,279.758,207.558z"/>
<path style="fill:#9CDD05;" d="M365.353,182.969c-22.019,13.628-48.481,11.791-73.054,3.628
	c-11.847-19.21-19.824-40.758-17.207-62.998c20.323-31.773,67.443-52.964,103.2-63.04c5.453-1.573,10.905,2.464,11.01,8.137
	C390.158,104.626,384.916,152.898,365.353,182.969z"/>
<path style="fill:#91CC04;" d="M216.487,157.226C135.355,168.727,115.049,86.421,121.55,5.477c0.304-3.754,3.974-6.281,7.592-5.243
	C166.09,10.52,216.872,33.686,235.33,67.773C252.08,98.616,238.998,130.118,216.487,157.226z"/>
<path style="fill:#9CDD05;" d="M235.33,67.773c-1.367,22.716-12.394,44.934-25.312,63.805c-24.41,5.711-48.448,5.095-69.688-7.822
	c-19.15-31.96-21.76-81.171-18.78-118.279c0.304-3.754,3.974-6.281,7.592-5.243C165.959,10.483,216.789,33.533,235.33,67.773z"/>
<path style="fill:#91CC04;" d="M344.098,122.435l42.257-3.093c-0.734,5.253-1.657,10.612-2.789,15.98l-51.915,3.796
	c-6.071,8.43-11.786,16.788-17.113,25.008l61.488-2.59c-2.129,5.599-4.582,10.999-7.424,16.054l-64.173,2.705
	c-19.146,31.69-35.968,66.197-48.675,101.764c-1.153,3.209-4.184,5.211-7.413,5.211c-3.507,0-6.707-2.359-7.623-5.935
	c-0.283-0.703-0.472-1.468-0.545-2.275c-3.517-41.266-17.286-94.038-46.095-151.98l-58.699-12.719
	c-2.59-5.589-4.75-11.482-6.543-17.522l55.836,12.111c-5.169-9.563-10.8-19.388-16.934-29.433l-44.491-8.472
	c-0.818-5.536-1.416-11.031-1.835-16.358l34.792,6.616c-9.961-15.215-22.481-34.54-35.012-50.95
	c0.115-1.804,0.241-3.439,0.357-4.876c0.304-3.754,3.974-6.281,7.592-5.243c1.146,0.319,3.712,1.082,5.306,1.573
	c11.849,15.718,23.949,34.194,33.984,49.409l5.767-33.963c4.855,2.328,9.783,4.876,14.649,7.644l-7.822,46.116
	c5.474,8.934,10.664,17.868,15.571,26.791l13.883-58.384c4.771,3.806,9.248,7.896,13.254,12.289l-16.012,67.308
	c20.179,40.206,36.382,84.608,44.26,129.446c11.305-26.789,24.638-52.659,39.667-77.416l-11.692-54.232
	c3.88-4.897,8.326-9.448,13.149-13.663l10.538,48.926c4.928-7.497,10.15-15.089,15.676-22.743l-4.446-41.89
	c4.918-2.988,9.94-5.715,14.942-8.2l3.355,31.593c12.772-16.4,26.99-33.019,42.803-49.608c0.807-0.231,1.573-0.461,2.317-0.671
	c5.453-1.573,10.905,2.464,11.01,8.137c0.01,0.44,0.01,0.881,0.021,1.342C372.462,87.559,357.468,105.133,344.098,122.435z"/>
<path style="fill:#CC7400;" d="M367.943,300.535l-23.782,133.147c-5.232,29.339-27.378,50.352-53.037,50.352h-61.887
	c-25.659,0-47.804-21.013-53.037-50.352L152.42,300.535H367.943z"/>
<path style="fill:#FF9811;" d="M391.578,283.59v16.599c0,11.23-9.185,20.416-20.416,20.416H149.201
	c-11.23,0-20.416-9.185-20.416-20.416V283.59c0-11.23,9.185-20.416,20.416-20.416h221.961
	C382.392,263.174,391.578,272.359,391.578,283.59z"/>
<path style="fill:#884D00;" d="M333.057,498.012c0,3.848-1.573,7.35-4.11,9.878c-2.527,2.538-6.019,4.11-9.867,4.11H201.283
	c-7.686,0-13.977-6.291-13.977-13.988c0-3.848,1.573-7.34,4.11-9.867c2.527-2.538,6.019-4.11,9.867-4.11h117.796
	C326.766,484.034,333.057,490.326,333.057,498.012z"/>
<path style="fill:#EE8700;" d="M367.943,300.535l-23.782,133.147c-5.232,29.339-27.378,50.352-53.037,50.352h-37.413
	c-25.669,0-47.804-21.013-53.047-50.352l-23.782-133.147H367.943z"/>
<path style="fill:#FFA733;" d="M391.578,283.59v16.599c0,11.23-9.185,20.416-20.416,20.416H177.156
	c-11.23,0-20.416-9.185-20.416-20.416V283.59c0-11.23,9.185-20.416,20.416-20.416h194.006
	C382.392,263.174,391.578,272.359,391.578,283.59z"/>
<path style="fill:#AA6100;" d="M333.057,498.012c0,3.848-1.573,7.35-4.11,9.878c-2.527,2.538-6.019,4.11-9.867,4.11h-91.226
	c-7.696,0-13.988-6.291-13.988-13.988c0-3.848,1.573-7.34,4.11-9.867c2.527-2.538,6.029-4.11,9.878-4.11h91.226
	C326.766,484.034,333.057,490.326,333.057,498.012z"/>
<g>
	<path style="fill:#CC7400;" d="M209.949,351.876c-0.6-4.301-4.57-7.303-8.876-6.702c-4.301,0.601-7.302,4.574-6.702,8.876
		l12.583,90.177c0.548,3.933,3.917,6.778,7.779,6.778c0.362,0,0.728-0.025,1.097-0.077c4.301-0.601,7.302-4.574,6.702-8.876
		L209.949,351.876z"/>
	<path style="fill:#CC7400;" d="M319.289,345.173c-4.305-0.603-8.276,2.401-8.876,6.702l-12.583,90.177
		c-0.6,4.302,2.401,8.275,6.702,8.876c0.369,0.051,0.735,0.077,1.097,0.077c3.862,0,7.231-2.846,7.779-6.778l12.583-90.177
		C326.591,349.748,323.59,345.774,319.289,345.173z"/>
	<path style="fill:#CC7400;" d="M260.181,345.1c-4.343,0-7.864,3.521-7.864,7.864v90.525c0,4.343,3.521,7.864,7.864,7.864
		s7.864-3.521,7.864-7.864v-90.525C268.046,348.621,264.525,345.1,260.181,345.1z"/>
</g>
<g>
</g>
<g>
</g>
<g>
</g>
<g>
</g>
<g>
</g>
<g>
</g>
<g>
</g>
<g>
</g>
<g>
</g>
<g>
</g>
<g>
</g>
<g>
</g>
<g>
</g>
<g>
</g>
<g>
</g>
</svg>
