<svg height="512" viewBox="0 0 128 128" width="512" xmlns="http://www.w3.org/2000/svg"><g><path d="m15.662 112.417h52.875v13.833h-52.875z" fill="#66666d"/><g fill="#444156"><path d="m42.1 60.271a15 15 0 0 1 15 15v37.145a0 0 0 0 1 0 0h-30a0 0 0 0 1 0 0v-37.145a15 15 0 0 1 15-15z"/><path d="m15.7 66.421a0 0 0 0 1 0 0v29.062a0 0 0 0 1 0 0 11.187 11.187 0 0 1 -11.183-11.183v-6.692a11.187 11.187 0 0 1 11.183-11.187z" transform="matrix(.94 -.342 .342 .94 -27.077 8.34)"/><path d="m124.967 87.966-30.457-10.215-17.688-48.598 16.765-27.403z"/></g><path d="m115.647 62.36-12.74-35a13.375 13.375 0 0 1 17.143 7.99l3.591 9.867a13.374 13.374 0 0 1 -7.994 17.143z" fill="#fff16b"/><path d="m27.1 75.271a15 15 0 0 1 30 0v16.1l37.41-13.62-17.688-48.6-59.963 21.826a11 11 0 0 0 -6.574 14.1l10.164 27.923a10.977 10.977 0 0 0 6.651 6.6z" fill="#66666d"/><circle cx="42.1" cy="75.272" fill="#00e4ef" r="5"/></g></svg>