<svg id="Layer_1" height="512" viewBox="0 0 128 128" width="512" xmlns="http://www.w3.org/2000/svg" data-name="Layer 1"><path d="m18.167 60.186h91.667v54.291h-91.667z" fill="#fff5f5"/><path d="m66.625 84.436h32.25v22.564h-32.25z" fill="#6ae1db"/><path d="m48.39 31.5a1.75 1.75 0 0 0 1.75-1.75v-7a1.75 1.75 0 0 0 -3.5 0v7a1.75 1.75 0 0 0 1.75 1.75z" fill="#475a61"/><path d="m79.61 31.5a1.75 1.75 0 0 0 1.75-1.75v-7a1.75 1.75 0 0 0 -3.5 0v7a1.75 1.75 0 0 0 1.75 1.75z" fill="#475a61"/><path d="m13.523 51.501h100.953v8.684h-100.953z" fill="#fc642b"/><path d="m18.167 60.186h13.1a0 0 0 0 1 0 0v10.329a5.952 5.952 0 0 1 -5.952 5.952h-1.19a5.952 5.952 0 0 1 -5.952-5.952v-10.329a0 0 0 0 1 0 0z" fill="#fd9025"/><path d="m31.262 60.186h13.1a0 0 0 0 1 0 0v10.329a5.952 5.952 0 0 1 -5.962 5.952h-1.19a5.952 5.952 0 0 1 -5.952-5.952v-10.329a0 0 0 0 1 .004 0z" fill="#fc642b"/><path d="m44.357 60.186h13.1a0 0 0 0 1 0 0v10.329a5.952 5.952 0 0 1 -5.957 5.952h-1.19a5.952 5.952 0 0 1 -5.952-5.952v-10.329a0 0 0 0 1 0 0z" fill="#fd9025"/><path d="m57.452 60.186h13.1a0 0 0 0 1 0 0v10.329a5.952 5.952 0 0 1 -5.952 5.952h-1.2a5.952 5.952 0 0 1 -5.952-5.952v-10.329a0 0 0 0 1 .004 0z" fill="#fc642b"/><path d="m70.548 60.186h13.1a0 0 0 0 1 0 0v10.329a5.952 5.952 0 0 1 -5.952 5.952h-1.196a5.952 5.952 0 0 1 -5.952-5.952v-10.329a0 0 0 0 1 0 0z" fill="#fd9025"/><path d="m83.643 60.186h13.1a0 0 0 0 1 0 0v10.329a5.952 5.952 0 0 1 -5.952 5.952h-1.191a5.952 5.952 0 0 1 -5.952-5.952v-10.329a0 0 0 0 1 -.005 0z" fill="#fc642b"/><path d="m96.738 60.186h13.1a0 0 0 0 1 0 0v10.329a5.952 5.952 0 0 1 -5.952 5.952h-1.19a5.952 5.952 0 0 1 -5.952-5.952v-10.329a0 0 0 0 1 -.006 0z" fill="#fd9025"/><path d="m29.125 84.436h27.452v30.041h-27.452z" fill="#5a6c75"/><path d="m99.951 29.75h-71.9a7.063 7.063 0 0 0 -6.951 5.786l-2.933 15.964h91.667l-2.934-15.964a7.063 7.063 0 0 0 -6.949-5.786z" fill="#fecec0"/><path d="m43.604 13.523h40.792v9.227h-40.792z" fill="#fc642b"/><path d="m79.095 107h-6.428l4.428-22.564h6.429z" fill="#fff5f5"/><path d="m89.071 107h-5.428l4.428-22.564h5.429z" fill="#fff5f5"/><path d="m114.477 112.727h-100.954a1.75 1.75 0 0 0 0 3.5h100.954a1.75 1.75 0 0 0 0-3.5z" fill="#475a61"/></svg>